<svg width="103" height="156" viewBox="0 0 103 156" fill="none" xmlns="http://www.w3.org/2000/svg">
<path d="M17.4134 157.583H135.418C135.573 157.583 135.724 157.576 135.878 157.567C136.293 149.154 137.075 123.619 132.381 107.94C129.872 99.5558 123.309 92.5627 116.75 87.3634C116.505 87.1685 116.267 86.9767 116.023 86.7915C109.827 82.0049 103.775 78.8366 101.337 77.6343C100.61 77.2866 100.201 77.0981 100.201 77.0981L87.5935 75.8893H87.5871L79.1648 75.0769L75.3848 74.7129L73.2519 74.5115C73.2519 74.5115 73.0074 74.5277 72.5602 74.5667C70.5881 74.7292 64.6527 75.3271 58.3183 76.9519C58.0126 77.0299 57.7038 77.1079 57.3982 77.1924C56.3173 77.4881 55.2267 77.813 54.1554 78.1672C50.4204 79.3988 46.8237 81.0398 44.0764 83.2105C43.2335 83.8767 42.4131 84.6273 41.6153 85.456C41.477 85.5957 41.3386 85.7419 41.2003 85.8914C39.8266 87.3634 38.5237 89.0597 37.2884 90.9347C37.2884 90.9412 37.2819 90.9509 37.2819 90.9509C37.0664 91.2857 36.8508 91.6106 36.6289 91.9583C35.9372 93.0664 35.2648 94.2297 34.6118 95.4353V95.4418C34.4734 95.6985 34.3351 95.9455 34.2064 96.2022V96.2185C32.4209 99.6272 30.7931 103.361 29.3133 107.296C28.8468 108.544 28.3932 109.815 27.9557 111.092C27.8784 111.309 27.8012 111.534 27.7337 111.751C27.65 111.992 27.5664 112.232 27.4892 112.473C27.2222 113.279 26.9616 114.084 26.7074 114.897C26.6302 115.121 26.5627 115.355 26.4919 115.579C26.1316 116.726 25.7874 117.88 25.456 119.034C20.8074 135.041 18.2916 151.253 17.4198 157.583H17.4134Z" fill="#077FFF"/>
<path d="M35.2232 157.583H35.9985L40.348 131.018L43.861 109.581C43.8996 109.373 43.7549 109.172 43.5458 109.139C43.3399 109.1 43.1404 109.246 43.1082 109.458L39.666 130.476L35.2264 157.583H35.2232Z" fill="#53A6FF"/>
<path d="M20.8194 69.0732C16.9213 66.7147 12.0243 65.2054 7.55283 68.0762C4.78218 69.8553 3.05497 71.8581 2.11923 73.9834C1.18371 76.1083 1.02056 78.3972 1.44833 80.7803C2.30817 85.5699 5.54254 90.6846 9.54111 95.4092C13.5292 100.121 18.2285 104.388 21.9366 107.48C23.7893 109.026 25.3915 110.276 26.5304 111.139C27.0997 111.57 27.5539 111.904 27.8643 112.131C27.932 112.18 27.9932 112.224 28.047 112.263C28.0907 112.23 28.1395 112.194 28.1925 112.154C28.477 111.94 28.8931 111.622 29.4161 111.212C30.4625 110.392 31.9381 109.202 33.6505 107.727C37.0773 104.773 41.4444 100.68 45.2267 96.1133C49.0167 91.5371 52.1803 86.5303 53.2599 81.7471C53.7978 79.3633 53.8148 77.0498 53.1476 74.875C52.4812 72.7032 51.1222 70.6361 48.8556 68.7559C44.6574 65.2739 39.5798 66.5929 35.3917 68.9434C33.3135 70.1097 31.5026 71.5061 30.2091 72.6143C29.5632 73.1676 29.0479 73.6478 28.6954 73.9883C28.5193 74.1583 28.384 74.2936 28.2931 74.3857C28.2478 74.4316 28.2132 74.4668 28.1905 74.4902C28.1793 74.5019 28.1706 74.5109 28.1651 74.5166C28.1624 74.5194 28.1605 74.5221 28.1593 74.5234L28.1573 74.5244L27.7813 74.9229L27.42 74.5107C27.4193 74.5114 27.419 74.5117 27.419 74.5117V74.5107L27.4122 74.5039C27.4075 74.4986 27.4004 74.4903 27.3907 74.4795C27.3707 74.4573 27.3401 74.4236 27.2999 74.3799C27.2191 74.292 27.0981 74.162 26.9405 73.999C26.6254 73.673 26.1633 73.2124 25.5792 72.6777C24.4092 71.6068 22.7567 70.2454 20.8194 69.0732Z" fill="#077FFF" stroke="#53A6FF"/>
<path d="M68.9064 24.7574C67.745 28.3416 67.0533 32.1274 66.4807 35.6954C65.8083 39.897 65.2357 44.1182 64.4379 48.3004C63.936 50.9747 64.4057 53.7369 65.7601 56.07C67.2753 58.6859 69.7685 60.5609 72.6768 61.2888L77.2546 62.5236L77.2289 62.6244L75.9839 67.4662L75.5239 69.26L74.2821 73.1659L79.6224 80.6854L100.196 77.1011L104.12 59.3716C111.002 60.1677 117.021 54.8677 115.399 48.4271C114.334 44.2092 110.783 43.9947 108.013 44.5406C109.763 42.1815 111.079 39.4388 111.825 36.4005C114.807 24.2667 107.485 11.9899 95.4729 8.98081C89.1932 7.40803 82.3794 8.46088 77.1034 12.3311C72.9245 15.3954 70.4827 19.8896 68.9064 24.7606V24.7574Z" fill="#077FFF"/>
<path d="M75.9874 67.4655C88.5371 69.3113 92.922 64.8821 92.922 64.8821C85.3522 64.7392 79.2141 63.1891 77.2324 62.627L75.9874 67.4688V67.4655Z" fill="#53A6FF"/>
<path d="M115.251 47.7054C115.251 47.7054 114.485 43.2502 108.015 44.5403L103.405 48.6965L104.091 41.6742C104.091 41.6742 96.4533 32.8712 95.1793 24.0714C93.9054 15.2684 98.3128 8.24609 98.3128 8.24609C98.3128 8.24609 121.028 15.5641 122.692 24.2664C124.355 32.9687 115.251 47.7054 115.251 47.7054Z" fill="#3D0E94"/>
<path d="M111.76 14.4436C111.76 14.4436 102.36 -0.588854 85.3898 0.993677C68.4198 2.57621 68.156 16.949 68.156 16.949C68.156 16.949 97.5278 23.1459 111.76 14.4436Z" fill="#53A6FF"/>
<path d="M72.8565 73.6507L75.9867 67.4668L80.4938 78.2683L101.707 71.1453L101.25 79.0579L92.635 96.4658L70.6368 123.762L68.7451 86.1777L72.8565 73.6507Z" fill="#53A6FF"/>
<path d="M75.4386 82.3652L76.0938 88.8984L76.1104 89.0566L76.0313 89.1963L69.838 100.044L71.0636 122.132L86.1974 103.288L81.588 90.1006L81.5069 89.8711L81.6388 89.666L84.877 84.6211L80.4825 78.8496L75.4386 82.3652Z" fill="#077FFF" stroke="#53A6FF"/>
<path d="M93.4828 95.5322C93.5632 95.5322 93.6468 95.5062 93.7176 95.451C93.8849 95.321 93.9139 95.0773 93.7852 94.9083L80.7947 78.0301C80.6692 77.8677 80.4376 77.8319 80.2703 77.9521L68.5859 86.3912C68.4122 86.5147 68.3736 86.7584 68.4959 86.9306C68.6181 87.1029 68.8594 87.1451 69.0299 87.0216L80.4151 78.797L93.1772 95.3827C93.2511 95.4802 93.367 95.5322 93.4796 95.5322H93.4828Z" fill="#53A6FF"/>
<path d="M70.6356 123.852C70.7482 123.852 70.8576 123.803 70.9316 123.709C83.5553 108.075 113.947 101.459 114.253 101.394C114.394 101.365 114.51 101.254 114.545 101.112C114.581 100.969 114.536 100.816 114.423 100.722L103.784 91.4831L116.833 87.3399C117.035 87.2749 117.148 87.0572 117.084 86.8557C117.019 86.651 116.807 86.5373 116.604 86.6023L102.896 90.9534C102.764 90.9957 102.665 91.1061 102.636 91.2459C102.607 91.3824 102.655 91.5253 102.761 91.6163L113.345 100.806C108.545 101.94 82.0112 108.764 70.3364 123.218C70.2013 123.384 70.2271 123.628 70.3911 123.764C70.4619 123.823 70.5488 123.852 70.6324 123.852H70.6356Z" fill="#53A6FF"/>
<path d="M70.7 123.355C70.7193 123.355 70.7386 123.355 70.7579 123.352C70.967 123.319 71.1117 123.124 71.0796 122.913C68.7601 107.231 57.2526 90.057 55.2484 87.1649L65.3436 83.5774C65.4754 83.5319 65.5687 83.4182 65.5945 83.2785C65.6202 83.142 65.5687 83.0023 65.4626 82.9113L57.629 76.3829C57.465 76.2465 57.2237 76.2725 57.0886 76.4349C56.9535 76.6007 56.976 76.8444 57.14 76.9809L64.4492 83.0705L54.5149 86.5995C54.3991 86.6385 54.3123 86.7327 54.2769 86.8497C54.2415 86.9667 54.2608 87.0935 54.3316 87.1942C54.4667 87.3827 67.8175 106.107 70.3203 123.024C70.3493 123.215 70.5134 123.355 70.7 123.355Z" fill="#53A6FF"/>
<path d="M64.8263 122.842C64.8263 122.842 36.114 98.8508 34.7178 98.9613C33.3216 99.0718 41.3063 111.566 41.3063 111.566C41.3063 111.566 20.5145 103.8 19.173 104.616C17.8314 105.431 20.0898 107.381 20.0898 107.381C20.0898 107.381 18.1017 106.65 17.6609 107.748C17.2202 108.846 19.099 110.471 19.099 110.471C19.099 110.471 17.5162 110.419 17.6384 112.005C17.7607 113.591 55.4871 142.905 55.4871 142.905L64.8263 122.839V122.842Z" fill="#077FFF"/>
<path d="M64.8263 122.842C64.8263 122.842 36.114 98.8508 34.7178 98.9613C33.3216 99.0718 41.3063 111.566 41.3063 111.566C41.3063 111.566 20.5145 103.8 19.173 104.616C17.8314 105.431 20.0898 107.381 20.0898 107.381C20.0898 107.381 18.1017 106.65 17.6609 107.748C17.2202 108.846 19.099 110.471 19.099 110.471C19.099 110.471 17.5162 110.419 17.6384 112.005C17.7607 113.591 55.4871 142.905 55.4871 142.905L64.8263 122.839V122.842Z" fill="#53A6FF"/>
<path d="M31.8385 118.923C31.9511 118.923 32.0637 118.864 32.128 118.76C32.2277 118.598 32.1795 118.383 32.0218 118.282L19.2823 110.181C19.2533 110.165 17.603 109.193 17.8925 108.082C17.9568 107.838 18.0759 107.676 18.2593 107.578C18.6871 107.354 19.3788 107.53 19.6104 107.614L34.5633 115.228C34.7338 115.316 34.9397 115.244 35.0233 115.075C35.1102 114.906 35.0394 114.695 34.8721 114.61L19.8871 106.98C19.8067 106.948 18.7354 106.548 17.9472 106.961C17.5901 107.146 17.3424 107.474 17.2298 107.903C16.8051 109.531 18.8415 110.724 18.9284 110.773L31.6551 118.867C31.713 118.903 31.7741 118.919 31.8385 118.919V118.923Z" fill="#53A6FF"/>
<path d="M98.706 138.586C98.8861 138.586 99.0437 138.46 99.0823 138.278L101.627 125.617C101.669 125.409 101.534 125.205 101.328 125.159C101.116 125.12 100.916 125.253 100.874 125.461L98.3296 138.122C98.2877 138.33 98.4228 138.534 98.6287 138.58C98.6545 138.586 98.6802 138.586 98.706 138.586Z" fill="#53A6FF"/>
<path d="M50.5176 152.368L58.3704 157.581H59.7666L51.2221 151.91L65.8791 121.611L98.3842 138.392L98.7446 138.577L114.392 146.659C114.585 146.753 114.814 146.675 114.913 146.49C115.007 146.295 114.93 146.064 114.746 145.97L99.1531 137.921L98.4486 137.557L71.1518 123.457H71.1454L70.8687 123.317L70.7915 123.278L70.6242 123.184L70.6081 123.178L70.4537 123.1L70.3218 123.038V123.031L65.8887 120.747C65.7954 120.701 65.6893 120.692 65.5895 120.724C65.4898 120.763 65.4126 120.831 65.3675 120.926L64.5536 122.615L54.9346 142.48L50.3857 151.884C50.3021 152.053 50.3535 152.264 50.5176 152.372V152.368Z" fill="#53A6FF"/>
</svg>
