<svg width="91" height="78" viewBox="0 0 91 78" fill="none" xmlns="http://www.w3.org/2000/svg">
<path d="M88.5602 55.2965L36.6799 77.6691C35.7645 78.0642 34.7822 78.1037 33.8868 77.8403C32.7775 77.5177 31.8153 76.7276 31.3208 75.6017L0.843496 6.99577C0.402474 6.00157 0.402474 4.92179 0.76331 3.98026C1.13751 3.00582 1.8926 2.16965 2.9417 1.71535L54.822 -20.6639C55.8511 -21.105 56.967 -21.0984 57.9359 -20.7232C58.9048 -20.3479 59.7334 -19.6104 60.1811 -18.5965L90.6584 50.016C91.066 50.9312 91.0995 51.9188 90.8188 52.8011C90.4847 53.8743 89.6895 54.8092 88.5602 55.2965Z" fill="#F7F5F3"/>
<path d="M3.58366 3.16384C2.9689 3.4272 2.50115 3.91442 2.26728 4.53332C2.04008 5.12589 2.06013 5.77771 2.31405 6.35711L32.7914 74.9697C33.0787 75.6215 33.6467 76.1153 34.3417 76.3194C34.8963 76.484 35.4977 76.4445 36.0256 76.2141L87.9125 53.8414C88.5674 53.5583 89.0686 53.0118 89.2757 52.3336C89.4494 51.7806 89.416 51.1814 89.1755 50.6547L58.7048 -17.9578C58.4442 -18.5504 57.9564 -19.0047 57.3483 -19.2417C56.7336 -19.4788 56.0654 -19.4656 55.464 -19.2022L3.58366 3.16384Z" fill="#FFFDFA"/>
<g style="mix-blend-mode:multiply" opacity="0.4">
<path d="M28.5738 1.03795C28.5471 0.998445 28.5203 0.958939 28.4936 0.926018C27.9858 0.13593 27.2975 -0.502724 26.4823 -0.924104C25.0322 -1.67469 23.3417 -1.73394 21.8449 -1.08871L10.1644 3.94811C9.36258 4.29706 8.64758 4.83695 8.10633 5.50853C7.03718 6.85168 6.68971 8.62938 7.17751 10.2622C7.23765 10.4729 7.31115 10.6836 7.4047 10.8877C8.03283 12.2967 9.24898 13.3633 10.7391 13.811C11.0331 13.9032 11.3405 13.9625 11.6479 14.002C12.5967 14.1205 13.5723 13.9822 14.4544 13.6003L26.1348 8.56354C26.7095 8.31993 27.224 7.97755 27.6717 7.55617C28.106 7.14796 28.4669 6.67391 28.7408 6.14718C29.0081 5.63363 29.1885 5.08056 29.2754 4.51434C29.3021 4.3234 29.3222 4.13246 29.3289 3.94152C29.3556 3.34896 29.2754 2.75639 29.095 2.19016C29.0349 1.99922 28.9614 1.80828 28.8812 1.61734C28.7876 1.41324 28.6807 1.21572 28.5671 1.03136L28.5738 1.03795Z" fill="#E6E6E6"/>
</g>
<path d="M28.7418 0.379502C28.715 0.339997 28.6883 0.300492 28.6616 0.267571C28.1537 -0.522517 27.4655 -1.16117 26.6502 -1.58255C25.2002 -2.33313 23.5096 -2.39239 22.0128 -1.74715L10.3324 3.28966C9.53054 3.63861 8.81555 4.17851 8.2743 4.85008C7.20515 6.19323 6.85768 7.97093 7.34548 9.60378C7.40562 9.81447 7.47912 10.0252 7.57267 10.2293C8.20079 11.6383 9.41695 12.7049 10.9071 13.1526C11.2011 13.2448 11.5085 13.304 11.8158 13.3435C12.7647 13.462 13.7403 13.3238 14.6224 12.9419L26.3028 7.90509C26.8774 7.66148 27.392 7.31911 27.8397 6.89773C28.274 6.48951 28.6348 6.01546 28.9088 5.48874C29.1761 4.97518 29.3565 4.42212 29.4434 3.85589C29.4701 3.66495 29.4902 3.47401 29.4968 3.28307C29.5236 2.69051 29.4434 2.09794 29.263 1.53171C29.2028 1.34078 29.1293 1.14984 29.0491 0.958898C28.9556 0.754791 28.8487 0.55727 28.7351 0.372916L28.7418 0.379502Z" fill="white"/>
<path d="M28.3126 1.28863C28.8806 2.57252 28.7937 3.98152 28.1856 5.14031C27.7245 6.02258 26.9628 6.75999 25.9671 7.18796L14.2867 12.2248C13.251 12.6725 12.1351 12.7054 11.1327 12.4025C9.90989 12.0338 8.85411 11.1581 8.29949 9.91376C7.60455 8.34675 7.89188 6.59539 8.89421 5.34442C9.34191 4.78477 9.92994 4.32389 10.6383 4.02102L22.3187 -1.01579C23.6351 -1.58202 25.0784 -1.48984 26.2611 -0.877526C27.1432 -0.423226 27.8782 0.320773 28.3059 1.28863H28.3126Z" fill="white"/>
<path d="M27.7243 4.09291C27.2632 4.97518 26.5015 5.71259 25.5058 6.14056L13.8254 11.1774C12.7897 11.6251 11.6737 11.658 10.6714 11.3551C9.62232 11.0391 8.70018 10.3478 8.10547 9.37333C8.15893 9.5511 8.21907 9.72887 8.29925 9.90664C8.85387 11.151 9.90965 12.0267 11.1325 12.3954C12.1348 12.6983 13.2507 12.6654 14.2865 12.2177L25.9669 7.18084C26.9625 6.75287 27.7243 6.01546 28.1854 5.13319C28.7934 3.9744 28.8803 2.57199 28.3123 1.28152C28.2321 1.10375 28.1453 0.939146 28.045 0.781128C28.3791 1.91359 28.2455 3.09213 27.7243 4.08633V4.09291Z" fill="#F3F1F0"/>
<path d="M20.1262 9.70257L25.9664 7.18087C26.962 6.75291 27.7238 6.01549 28.1848 5.13323C28.7929 3.97443 28.8798 2.57203 28.3118 1.28155C27.8841 0.313694 27.1491 -0.430306 26.2671 -0.884606C25.0843 -1.49692 23.641 -1.59568 22.3246 -1.02287L16.4844 1.49882L20.1328 9.70257H20.1262Z" fill="#F0F0F0"/>
<path d="M28.0454 0.787711C28.3796 1.92017 28.2459 3.09872 27.7247 4.09291C27.2636 4.97518 26.5019 5.71259 25.5062 6.14056L19.666 8.66225L20.1271 9.70254L25.9673 7.18084C26.9629 6.75287 27.7247 6.01546 28.1858 5.13319C28.7938 3.9744 28.8807 2.57199 28.3127 1.28152C28.2325 1.10375 28.1457 0.939146 28.0454 0.781128V0.787711Z" fill="#E6E6E6"/>
<path opacity="0.3" d="M13.8394 3.94803C13.9062 4.10605 13.8394 4.2904 13.679 4.35624L10.7388 5.62697C10.5785 5.69281 10.3914 5.62697 10.3246 5.46895C10.2577 5.31093 10.3246 5.12658 10.4849 5.06074L13.4251 3.79001C13.5854 3.72417 13.7725 3.79001 13.8394 3.94803ZM22.8135 -0.259189L14.835 3.17769C14.6746 3.24353 14.6011 3.42789 14.6746 3.58591C14.7415 3.74392 14.9286 3.81635 15.0889 3.74392L23.0674 0.307041C23.2278 0.2412 23.3013 0.056846 23.2278 -0.101172C23.161 -0.259189 22.9739 -0.331614 22.8135 -0.259189Z" fill="white"/>
<g style="mix-blend-mode:multiply" opacity="0.4">
<path d="M57.941 -11.6242C57.9142 -11.6637 57.8875 -11.7032 57.8608 -11.7361C57.3529 -12.5262 56.6647 -13.1648 55.8495 -13.5862C54.3994 -14.3368 52.7088 -14.3961 51.212 -13.7508L39.5316 -8.714C38.7298 -8.36505 38.0148 -7.82515 37.4735 -7.15358C36.4044 -5.81043 36.0569 -4.03273 36.5447 -2.39989C36.6048 -2.18919 36.6783 -1.9785 36.7719 -1.7744C37.4 -0.365408 38.6162 0.70121 40.1063 1.14893C40.4003 1.2411 40.7077 1.30036 41.0151 1.33987C41.9639 1.45838 42.9395 1.32011 43.8216 0.938237L55.502 -4.09857C56.0767 -4.34218 56.5912 -4.68456 57.0389 -5.10594C57.4732 -5.51415 57.8341 -5.9882 58.108 -6.51493C58.3753 -7.02848 58.5557 -7.58154 58.6426 -8.14777C58.6693 -8.33871 58.6894 -8.52965 58.6961 -8.72059C58.7228 -9.31315 58.6426 -9.90572 58.4622 -10.472C58.402 -10.6629 58.3285 -10.8538 58.2484 -11.0448C58.1548 -11.2489 58.0479 -11.4464 57.9343 -11.6307L57.941 -11.6242Z" fill="#E6E6E6"/>
</g>
<path d="M58.1089 -12.2882C58.0822 -12.3277 58.0555 -12.3672 58.0288 -12.4002C57.5209 -13.1902 56.8327 -13.8289 56.0174 -14.2503C54.5674 -15.0009 52.8768 -15.0601 51.38 -14.4149L39.6996 -9.37807C38.8977 -9.02911 38.1827 -8.48922 37.6415 -7.81764C36.5723 -6.47449 36.2249 -4.6968 36.7127 -3.06395C36.7728 -2.85326 36.8463 -2.64257 36.9399 -2.43846C37.568 -1.02947 38.7841 0.0371494 40.2743 0.484865C40.5683 0.577043 40.8757 0.636297 41.183 0.675801C42.1319 0.794314 43.1075 0.656052 43.9895 0.274176L55.67 -4.76264C56.2446 -5.00625 56.7592 -5.34862 57.2069 -5.77C57.6412 -6.17821 58.002 -6.65226 58.276 -7.17899C58.5433 -7.69255 58.7237 -8.24561 58.8106 -8.81184C58.8373 -9.00277 58.8573 -9.19371 58.864 -9.38465C58.8908 -9.97722 58.8106 -10.5698 58.6302 -11.136C58.57 -11.327 58.4965 -11.5179 58.4163 -11.7088C58.3228 -11.9129 58.2159 -12.1105 58.1023 -12.2948L58.1089 -12.2882Z" fill="white"/>
<path d="M57.6798 -11.381C58.2477 -10.0972 58.1609 -8.68816 57.5528 -7.52937C57.0917 -6.6471 56.33 -5.90969 55.3343 -5.48172L43.6539 -0.444912C42.6182 0.00280476 41.5022 0.0357256 40.4999 -0.267141C39.2771 -0.635849 38.2213 -1.51153 37.6667 -2.75592C36.9717 -4.32293 37.2591 -6.07429 38.2614 -7.32526C38.7091 -7.88491 39.2971 -8.34579 40.0054 -8.64866L51.6859 -13.6855C53.0022 -14.2517 54.4456 -14.1595 55.6283 -13.5472C56.5104 -13.0929 57.2454 -12.3489 57.6731 -11.381H57.6798Z" fill="white"/>
<path d="M57.0993 -8.56907C56.6382 -7.68681 55.8765 -6.94939 54.8808 -6.52143L43.2004 -1.48462C42.1647 -1.0369 41.0487 -1.00398 40.0464 -1.30685C38.9973 -1.62288 38.0752 -2.31421 37.4805 -3.28865C37.5339 -3.11088 37.5941 -2.93311 37.6743 -2.75534C38.2289 -1.51096 39.2847 -0.635275 40.5075 -0.266567C41.5098 0.0362997 42.6257 0.00337887 43.6615 -0.444337L55.3419 -5.48115C56.3375 -5.90911 57.0993 -6.64653 57.5604 -7.52879C58.1684 -8.68759 58.2553 -10.09 57.6873 -11.3805C57.6071 -11.5582 57.5203 -11.7228 57.42 -11.8809C57.7541 -10.7484 57.6205 -9.56985 57.0993 -8.57566V-8.56907Z" fill="#F3F1F0"/>
<g style="mix-blend-mode:multiply" opacity="0.4">
<path d="M34.9957 15.4894C34.9689 15.4499 34.9422 15.4104 34.9155 15.3774C34.4076 14.5873 33.7194 13.9487 32.9042 13.5273C31.4541 12.7767 29.7635 12.7175 28.2667 13.3627L16.5863 18.3995C15.7845 18.7485 15.0695 19.2884 14.5282 19.9599C13.4591 21.3031 13.1116 23.0808 13.5994 24.7136C13.6595 24.9243 13.733 25.135 13.8266 25.3391C14.4547 26.7481 15.6709 27.8147 17.161 28.2625C17.455 28.3546 17.7624 28.4139 18.0698 28.4534C19.0186 28.5719 19.9942 28.4336 20.8763 28.0518L32.5567 23.015C33.1313 22.7713 33.6459 22.429 34.0936 22.0076C34.5279 21.5994 34.8888 21.1253 35.1627 20.5986C35.43 20.085 35.6104 19.532 35.6973 18.9658C35.724 18.7748 35.7441 18.5839 35.7507 18.3929C35.7775 17.8004 35.6973 17.2078 35.5169 16.6416C35.4567 16.4506 35.3832 16.2597 35.303 16.0688C35.2095 15.8647 35.1026 15.6671 34.989 15.4828L34.9957 15.4894Z" fill="#E6E6E6"/>
</g>
<path d="M35.1636 14.8309C35.1369 14.7914 35.1102 14.7519 35.0834 14.719C34.5756 13.9289 33.8873 13.2902 33.0721 12.8689C31.6221 12.1183 29.9315 12.059 28.4347 12.7043L16.7543 17.7411C15.9524 18.09 15.2374 18.6299 14.6962 19.3015C13.627 20.6446 13.2796 22.4223 13.7674 24.0552C13.8275 24.2659 13.901 24.4766 13.9945 24.6807C14.6227 26.0897 15.8388 27.1563 17.3289 27.604C17.623 27.6962 17.9303 27.7554 18.2377 27.7949C19.1866 27.9135 20.1622 27.7752 21.0442 27.3933L32.7246 22.3565C33.2993 22.1129 33.8138 21.7705 34.2615 21.3491C34.6959 20.9409 35.0567 20.4669 35.3307 19.9402C35.598 19.4266 35.7784 18.8735 35.8653 18.3073C35.892 18.1164 35.912 17.9254 35.9187 17.7345C35.9454 17.1419 35.8653 16.5494 35.6848 15.9831C35.6247 15.7922 35.5512 15.6013 35.471 15.4103C35.3775 15.2062 35.2705 15.0087 35.157 14.8243L35.1636 14.8309Z" fill="white"/>
<path d="M34.7344 15.7381C35.3024 17.022 35.2156 18.431 34.6075 19.5898C34.1464 20.472 33.3846 21.2095 32.389 21.6374L20.7086 26.6742C19.6729 27.1219 18.5569 27.1549 17.5546 26.852C16.3318 26.4833 15.276 25.6076 14.7214 24.3632C14.0264 22.7962 14.3138 21.0449 15.3161 19.7939C15.7638 19.2342 16.3518 18.7734 17.0601 18.4705L28.7405 13.4337C30.0569 12.8674 31.5003 12.9596 32.683 13.5719C33.5651 14.0262 34.3001 14.7702 34.7278 15.7381H34.7344Z" fill="white"/>
<path d="M34.1462 18.5442C33.6851 19.4265 32.9233 20.1639 31.9277 20.5919L20.2473 25.6287C19.2115 26.0764 18.0956 26.1093 17.0933 25.8064C16.0442 25.4904 15.1221 24.7991 14.5273 23.8246C14.5808 24.0024 14.6409 24.1802 14.7211 24.3579C15.2757 25.6023 16.3315 26.478 17.5544 26.8467C18.5567 27.1496 19.6726 27.1167 20.7083 26.6689L32.3888 21.6321C33.3844 21.2042 34.1462 20.4668 34.6072 19.5845C35.2153 18.4257 35.3022 17.0233 34.7342 15.7328C34.654 15.555 34.5671 15.3904 34.4669 15.2324C34.801 16.3649 34.6674 17.5434 34.1462 18.5376V18.5442Z" fill="#F3F1F0"/>
<path d="M26.548 24.1598L32.3882 21.6382C33.3839 21.2102 34.1456 20.4728 34.6067 19.5905C35.2148 18.4317 35.3017 17.0293 34.7337 15.7388C34.306 14.771 33.571 14.027 32.6889 13.5727C31.5062 12.9604 30.0628 12.8616 28.7465 13.4344L22.9062 15.9561L26.5547 24.1598H26.548Z" fill="#F0F0F0"/>
<path d="M34.4673 15.239C34.8014 16.3715 34.6678 17.55 34.1466 18.5442C33.6855 19.4265 32.9237 20.1639 31.9281 20.5919L26.0879 23.1136L26.549 24.1538L32.3892 21.6321C33.3848 21.2042 34.1466 20.4668 34.6076 19.5845C35.2157 18.4257 35.3026 17.0233 34.7346 15.7328C34.6544 15.555 34.5676 15.3904 34.4673 15.2324V15.239Z" fill="#E6E6E6"/>
<path opacity="0.3" d="M20.2612 18.3987C20.3281 18.5567 20.2612 18.7411 20.1009 18.8069L17.1607 20.0777C17.0003 20.1435 16.8132 20.0777 16.7464 19.9196C16.6796 19.7616 16.7464 19.5773 16.9068 19.5114L19.8469 18.2407C20.0073 18.1749 20.1877 18.2407 20.2612 18.3987ZM29.2354 14.1981L21.2569 17.635C21.0965 17.7008 21.023 17.8852 21.0965 18.0432C21.1633 18.2012 21.3504 18.2736 21.5108 18.2012L29.4893 14.7643C29.6497 14.6985 29.7232 14.5141 29.6497 14.3561C29.5829 14.1981 29.3958 14.1257 29.2354 14.1981Z" fill="white"/>
<g style="mix-blend-mode:multiply" opacity="0.4">
<path d="M64.3629 2.82921C64.3361 2.7897 64.3094 2.7502 64.2827 2.71728C63.7748 1.92719 63.0866 1.28854 62.2713 0.867156C60.8213 0.116572 59.1307 0.0573155 57.6339 0.702554L45.9535 5.73937C45.1516 6.08832 44.4366 6.62821 43.8954 7.29979C42.8262 8.64294 42.4788 10.4206 42.9666 12.0535C43.0267 12.2642 43.1002 12.4749 43.1938 12.679C43.8219 14.088 45.038 15.1546 46.5282 15.6023C46.8222 15.6945 47.1296 15.7537 47.4369 15.7932C48.3858 15.9117 49.3614 15.7735 50.2434 15.3916L61.9239 10.3548C62.4985 10.1112 63.0131 9.76881 63.4608 9.34743C63.8951 8.93922 64.2559 8.46517 64.5299 7.93844C64.7972 7.42489 64.9776 6.87183 65.0645 6.3056C65.0912 6.11466 65.1113 5.92372 65.1179 5.73278C65.1447 5.14021 65.0645 4.54765 64.8841 3.98142C64.8239 3.79048 64.7504 3.59954 64.6702 3.40861C64.5767 3.2045 64.4698 3.00698 64.3562 2.82262L64.3629 2.82921Z" fill="#E6E6E6"/>
</g>
<path d="M64.5308 2.17076C64.5041 2.13126 64.4774 2.09175 64.4506 2.05883C63.9428 1.26874 63.2545 0.630089 62.4393 0.208708C60.9893 -0.541875 59.2987 -0.601132 57.8019 0.0441068L46.1215 5.08092C45.3196 5.42987 44.6046 5.96977 44.0634 6.64134C42.9942 7.98449 42.6467 9.76219 43.1345 11.395C43.1947 11.6057 43.2682 11.8164 43.3617 12.0205C43.9899 13.4295 45.206 14.4961 46.6961 14.9438C46.9901 15.036 47.2975 15.0953 47.6049 15.1348C48.5538 15.2533 49.5294 15.115 50.4114 14.7332L62.0918 9.69635C62.6665 9.45274 63.181 9.11037 63.6287 8.68899C64.0631 8.28077 64.4239 7.80672 64.6979 7.28C64.9652 6.76644 65.1456 6.21338 65.2325 5.64715C65.2592 5.45621 65.2792 5.26527 65.2859 5.07433C65.3126 4.48177 65.2324 3.8892 65.052 3.32297C64.9919 3.13203 64.9184 2.9411 64.8382 2.75016C64.7446 2.54605 64.6377 2.34853 64.5241 2.16418L64.5308 2.17076Z" fill="white"/>
<path d="M64.1016 3.07208C64.6696 4.35597 64.5827 5.76496 63.9747 6.92376C63.5136 7.80602 62.7518 8.54344 61.7562 8.9714L50.0758 14.0082C49.04 14.4559 47.9241 14.4888 46.9218 14.186C45.699 13.8173 44.6432 12.9416 44.0886 11.6972C43.3936 10.1302 43.6809 8.37884 44.6833 7.12786C45.131 6.56822 45.719 6.10733 46.4273 5.80447L58.1077 0.767656C59.4241 0.201427 60.8675 0.293603 62.0502 0.905921C62.9322 1.36022 63.6673 2.10422 64.0949 3.07208H64.1016Z" fill="white"/>
<path d="M63.5134 5.88417C63.0523 6.76644 62.2905 7.50385 61.2949 7.93182L49.6145 12.9686C48.5787 13.4163 47.4628 13.4493 46.4605 13.1464C45.4114 12.8304 44.4892 12.139 43.8945 11.1646C43.948 11.3424 44.0081 11.5201 44.0883 11.6979C44.6429 12.9423 45.6987 13.818 46.9215 14.1867C47.9239 14.4895 49.0398 14.4566 50.0755 14.0089L61.7559 8.9721C62.7516 8.54414 63.5134 7.80672 63.9744 6.92446C64.5825 5.76566 64.6694 4.36326 64.1014 3.07278C64.0212 2.89501 63.9343 2.73041 63.8341 2.57239C64.1682 3.70485 64.0346 4.8834 63.5134 5.87759V5.88417Z" fill="#F3F1F0"/>
<path d="M55.923 11.4938L61.7632 8.97213C62.7589 8.54417 63.5206 7.80675 63.9817 6.92449C64.5898 5.76569 64.6767 4.36329 64.1087 3.07281C63.681 2.10495 62.946 1.36095 62.0639 0.906653C60.8812 0.294335 59.4378 0.195575 58.1215 0.768389L52.2812 3.29008L55.9297 11.4938H55.923Z" fill="#F0F0F0"/>
<path d="M63.8345 2.57299C64.1686 3.70545 64.035 4.884 63.5138 5.87819C63.0527 6.76046 62.2909 7.49787 61.2953 7.92584L55.4551 10.4475L55.9161 11.4878L61.7564 8.96612C62.752 8.53815 63.5138 7.80074 63.9748 6.91847C64.5829 5.75968 64.6698 4.35727 64.1018 3.06679C64.0216 2.88902 63.9347 2.72442 63.8345 2.56641V2.57299Z" fill="#E6E6E6"/>
<path opacity="0.3" d="M49.6343 5.73929C49.7011 5.89731 49.6343 6.07508 49.4739 6.1475L46.5338 7.41823C46.3734 7.48407 46.193 7.41822 46.1195 7.26021C46.0527 7.10219 46.1195 6.91784 46.2798 6.85199L49.22 5.58127C49.3804 5.51543 49.5608 5.58127 49.6343 5.73929ZM58.6017 1.53207L50.6233 4.96895C50.4629 5.03479 50.3894 5.21915 50.4629 5.37717C50.5297 5.53518 50.7168 5.60761 50.8772 5.53518L58.8557 2.0983C59.016 2.03246 59.0895 1.8481 59.016 1.69009C58.9492 1.53207 58.7621 1.45965 58.6017 1.53207Z" fill="white"/>
<g style="mix-blend-mode:multiply" opacity="0.4">
<path d="M41.4097 29.9481C41.383 29.9086 41.3563 29.8691 41.3295 29.8362C40.8217 29.0461 40.1334 28.4074 39.3182 27.9861C37.8682 27.2355 36.1776 27.1762 34.6808 27.8215L23.0004 32.8583C22.1985 33.2072 21.4835 33.7471 20.9423 34.4187C19.8731 35.7618 19.5256 37.5395 20.0134 39.1724C20.0736 39.3831 20.1471 39.5938 20.2406 39.7979C20.8688 41.2069 22.0849 42.2735 23.575 42.7212C23.8691 42.8134 24.1764 42.8726 24.4838 42.9121C25.4327 43.0306 26.4083 42.8924 27.2903 42.5105L38.9707 37.4737C39.5454 37.2301 40.0599 36.8877 40.5076 36.4663C40.942 36.0581 41.3028 35.5841 41.5768 35.0573C41.8441 34.5438 42.0245 33.9907 42.1114 33.4245C42.1381 33.2336 42.1581 33.0426 42.1648 32.8517C42.1915 32.2591 42.1114 31.6665 41.9309 31.1003C41.8708 30.9094 41.7973 30.7184 41.7171 30.5275C41.6236 30.3234 41.5166 30.1259 41.403 29.9415L41.4097 29.9481Z" fill="#E6E6E6"/>
</g>
<path d="M41.5777 29.284C41.551 29.2445 41.5242 29.205 41.4975 29.1721C40.9897 28.382 40.3014 27.7434 39.4862 27.322C38.0362 26.5714 36.3456 26.5121 34.8488 27.1574L23.1683 32.1942C22.3665 32.5432 21.6515 33.0831 21.1102 33.7546C20.0411 35.0978 19.6936 36.8755 20.1814 38.5083C20.2416 38.719 20.3151 38.9297 20.4086 39.1338C21.0367 40.5428 22.2529 41.6094 23.743 42.0571C24.037 42.1493 24.3444 42.2086 24.6518 42.2481C25.6006 42.3666 26.5762 42.2283 27.4583 41.8464L39.1387 36.8096C39.7134 36.566 40.2279 36.2236 40.6756 35.8023C41.1099 35.3941 41.4708 34.92 41.7448 34.3933C42.012 33.8797 42.1925 33.3267 42.2793 32.7604C42.306 32.5695 42.3261 32.3786 42.3328 32.1876C42.3595 31.595 42.2793 31.0025 42.0989 30.4363C42.0388 30.2453 41.9653 30.0544 41.8851 29.8634C41.7915 29.6593 41.6846 29.4618 41.571 29.2775L41.5777 29.284Z" fill="white"/>
<path d="M41.1563 30.1912C41.7243 31.4751 41.6374 32.8841 41.0294 34.0429C40.5683 34.9252 39.8065 35.6626 38.8109 36.0905L27.1305 41.1274C26.0947 41.5751 24.9788 41.608 23.9765 41.3051C22.7536 40.9364 21.6979 40.0607 21.1432 38.8163C20.4483 37.2493 20.7356 35.498 21.738 34.247C22.1857 33.6874 22.7737 33.2265 23.482 32.9236L35.1624 27.8868C36.4788 27.3206 37.9222 27.4127 39.1049 28.0251C39.9869 28.4794 40.722 29.2234 41.1496 30.1912H41.1563Z" fill="white"/>
<path d="M40.568 33.0033C40.107 33.8856 39.3452 34.623 38.3496 35.051L26.6691 40.0878C25.6334 40.5355 24.5175 40.5684 23.5152 40.2655C22.4661 39.9495 21.5439 39.2582 20.9492 38.2837C21.0027 38.4615 21.0628 38.6393 21.143 38.817C21.6976 40.0614 22.7534 40.9371 23.9762 41.3058C24.9786 41.6087 26.0945 41.5758 27.1302 41.1281L38.8106 36.0912C39.8063 35.6633 40.568 34.9259 41.0291 34.0436C41.6372 32.8848 41.7241 31.4824 41.1561 30.1919C41.0759 30.0141 40.989 29.8495 40.8888 29.6915C41.2229 30.824 41.0893 32.0025 40.568 32.9967V33.0033Z" fill="#F3F1F0"/>
<path d="M32.9699 38.613L38.8101 36.0913C39.8058 35.6633 40.5675 34.9259 41.0286 34.0436C41.6367 32.8848 41.7235 31.4824 41.1556 30.192C40.7279 29.2241 39.9929 28.4801 39.1108 28.0258C37.9281 27.4135 36.4847 27.3147 35.1683 27.8875L29.3281 30.4092L32.9766 38.613H32.9699Z" fill="#F0F0F0"/>
<path d="M40.8892 29.6921C41.2233 30.8246 41.0897 32.0031 40.5685 32.9973C40.1074 33.8796 39.3456 34.617 38.35 35.045L32.5098 37.5667L32.9708 38.607L38.811 36.0853C39.8067 35.6573 40.5685 34.9199 41.0295 34.0376C41.6376 32.8788 41.7245 31.4764 41.1565 30.1859C41.0763 30.0082 40.9894 29.8436 40.8892 29.6855V29.6921Z" fill="#E6E6E6"/>
<path opacity="0.3" d="M26.6831 32.8584C26.7499 33.0164 26.6831 33.2008 26.5227 33.2666L23.5826 34.5374C23.4222 34.6032 23.2418 34.5374 23.1683 34.3793C23.1015 34.2213 23.1683 34.037 23.3287 33.9711L26.2688 32.7004C26.4292 32.6346 26.6096 32.7004 26.6831 32.8584ZM35.6506 28.6512L27.6721 32.0881C27.5117 32.1539 27.4382 32.3383 27.5117 32.4963C27.5785 32.6543 27.7656 32.7267 27.926 32.6543L35.9045 29.2174C36.0649 29.1516 36.1384 28.9672 36.0649 28.8092C35.9981 28.6512 35.8109 28.5788 35.6506 28.6512Z" fill="white"/>
<g style="mix-blend-mode:multiply" opacity="0.4">
<path d="M70.7847 17.2804C70.758 17.2409 70.7313 17.2014 70.7045 17.1685C70.1967 16.3784 69.5084 15.7397 68.6932 15.3183C67.2432 14.5677 65.5526 14.5085 64.0558 15.1537L52.3754 20.1905C51.5735 20.5395 50.8585 21.0794 50.3173 21.751C49.2481 23.0941 48.9006 24.8718 49.3884 26.5047C49.4486 26.7153 49.5221 26.926 49.6156 27.1301C50.2438 28.5391 51.4599 29.6058 52.95 30.0535C53.2441 30.1456 53.5514 30.2049 53.8588 30.2444C54.8077 30.3629 55.7833 30.2247 56.6653 29.8428L68.3457 24.806C68.9204 24.5624 69.4349 24.22 69.8826 23.7986C70.317 23.3904 70.6778 22.9163 70.9518 22.3896C71.2191 21.8761 71.3995 21.323 71.4864 20.7568C71.5131 20.5658 71.5331 20.3749 71.5398 20.184C71.5665 19.5914 71.4864 18.9988 71.3059 18.4326C71.2458 18.2417 71.1723 18.0507 71.0921 17.8598C70.9986 17.6557 70.8916 17.4581 70.778 17.2738L70.7847 17.2804Z" fill="#E6E6E6"/>
</g>
<path d="M70.9527 16.6219C70.926 16.5824 70.8992 16.5429 70.8725 16.51C70.3647 15.7199 69.6764 15.0813 68.8612 14.6599C67.4112 13.9093 65.7206 13.85 64.2238 14.4953L52.5433 19.5321C51.7415 19.881 51.0265 20.4209 50.4852 21.0925C49.4161 22.4357 49.0686 24.2134 49.5564 25.8462C49.6166 26.0569 49.6901 26.2676 49.7836 26.4717C50.4117 27.8807 51.6279 28.9473 53.118 29.395C53.412 29.4872 53.7194 29.5465 54.0268 29.586C54.9756 29.7045 55.9512 29.5662 56.8333 29.1843L68.5137 24.1475C69.0884 23.9039 69.6029 23.5615 70.0506 23.1402C70.4849 22.7319 70.8458 22.2579 71.1198 21.7312C71.387 21.2176 71.5675 20.6645 71.6543 20.0983C71.6811 19.9074 71.7011 19.7164 71.7078 19.5255C71.7345 18.9329 71.6543 18.3404 71.4739 17.7741C71.4138 17.5832 71.3403 17.3923 71.2601 17.2013C71.1665 16.9972 71.0596 16.7997 70.946 16.6153L70.9527 16.6219Z" fill="white"/>
<path d="M70.5235 17.524C71.0915 18.8079 71.0046 20.2169 70.3965 21.3757C69.9355 22.2579 69.1737 22.9953 68.1781 23.4233L56.4977 28.4601C55.4619 28.9078 54.346 28.9407 53.3437 28.6379C52.1208 28.2692 51.065 27.3935 50.5104 26.1491C49.8155 24.5821 50.1028 22.8307 51.1051 21.5798C51.5529 21.0201 52.1409 20.5592 52.8492 20.2498L64.5296 15.213C65.846 14.6467 67.2893 14.7389 68.4721 15.3512C69.3541 15.8055 70.0892 16.5495 70.5168 17.5174L70.5235 17.524Z" fill="white"/>
<path d="M69.9352 20.3352C69.4742 21.2175 68.7124 21.9549 67.7168 22.3829L56.0363 27.4197C55.0006 27.8674 53.8847 27.9003 52.8824 27.5974C51.8333 27.2814 50.9111 26.5901 50.3164 25.6156C50.3699 25.7934 50.43 25.9712 50.5102 26.149C51.0648 27.3933 52.1206 28.269 53.3434 28.6377C54.3457 28.9406 55.4617 28.9077 56.4974 28.46L68.1778 23.4232C69.1735 22.9952 69.9352 22.2578 70.3963 21.3755C71.0044 20.2167 71.0912 18.8143 70.5233 17.5238C70.4431 17.3461 70.3562 17.1815 70.256 17.0234C70.5901 18.1559 70.4564 19.3344 69.9352 20.3286V20.3352Z" fill="#F3F1F0"/>
<path d="M62.3371 25.945L68.1773 23.4233C69.1729 22.9953 69.9347 22.2579 70.3958 21.3757C71.0039 20.2169 71.0907 18.8145 70.5227 17.524C70.0951 16.5561 69.36 15.8121 68.478 15.3578C67.2953 14.7455 65.8519 14.6467 64.5355 15.2196L58.6953 17.7413L62.3438 25.945H62.3371Z" fill="#F0F0F0"/>
<path d="M70.2564 17.0242C70.5905 18.1566 70.4569 19.3352 69.9356 20.3294C69.4746 21.2116 68.7128 21.949 67.7172 22.377L61.877 24.8987L62.338 25.939L68.1782 23.4173C69.1739 22.9893 69.9356 22.2519 70.3967 21.3696C71.0048 20.2108 71.0917 18.8084 70.5237 17.518C70.4435 17.3402 70.3566 17.1756 70.2564 17.0176V17.0242Z" fill="#E6E6E6"/>
<path opacity="0.3" d="M56.0503 20.1905C56.1171 20.3485 56.0503 20.5328 55.8899 20.5987L52.9498 21.8694C52.7894 21.9352 52.6023 21.8694 52.5355 21.7114C52.4687 21.5534 52.5355 21.369 52.6959 21.3032L55.636 20.0324C55.7964 19.9666 55.9835 20.0324 56.0503 20.1905ZM65.0244 15.9832L57.0459 19.4201C56.8856 19.486 56.8121 19.6703 56.8856 19.8283C56.9524 19.9864 57.1395 20.0588 57.2999 19.9864L65.2784 16.5495C65.4387 16.4836 65.5122 16.2993 65.4387 16.1413C65.3719 15.9832 65.1848 15.9108 65.0244 15.9832Z" fill="white"/>
<g style="mix-blend-mode:multiply" opacity="0.4">
<path d="M47.8316 44.4015C47.8049 44.362 47.7781 44.3225 47.7514 44.2895C47.2436 43.4995 46.5553 42.8608 45.7401 42.4394C44.2901 41.6888 42.5995 41.6296 41.1027 42.2748L29.4222 47.3116C28.6204 47.6606 27.9054 48.2005 27.3641 48.8721C26.295 50.2152 25.9475 51.9929 26.4353 53.6257C26.4955 53.8364 26.569 54.0471 26.6625 54.2512C27.2906 55.6602 28.5068 56.7268 29.9969 57.1746C30.2909 57.2667 30.5983 57.326 30.9057 57.3655C31.8546 57.484 32.8302 57.3458 33.7122 56.9639L45.3926 51.9271C45.9673 51.6835 46.4818 51.3411 46.9295 50.9197C47.3639 50.5115 47.7247 50.0374 47.9987 49.5107C48.2659 48.9972 48.4464 48.4441 48.5332 47.8779C48.56 47.6869 48.58 47.496 48.5867 47.305C48.6134 46.7125 48.5332 46.1199 48.3528 45.5537C48.2927 45.3627 48.2192 45.1718 48.139 44.9809C48.0454 44.7768 47.9385 44.5792 47.8249 44.3949L47.8316 44.4015Z" fill="#E6E6E6"/>
</g>
<path d="M47.9996 43.743C47.9728 43.7035 47.9461 43.664 47.9194 43.6311C47.4115 42.841 46.7233 42.2024 45.9081 41.781C44.458 41.0304 42.7674 40.9711 41.2706 41.6164L29.5902 46.6532C28.7884 47.0021 28.0734 47.542 27.5321 48.2136C26.463 49.5568 26.1155 51.3345 26.6033 52.9673C26.6634 53.178 26.7369 53.3887 26.8305 53.5928C27.4586 55.0018 28.6748 56.0684 30.1649 56.5161C30.4589 56.6083 30.7663 56.6675 31.0737 56.7071C32.0225 56.8256 32.9981 56.6873 33.8802 56.3054L45.5606 51.2686C46.1352 51.025 46.6498 50.6826 47.0975 50.2613C47.5318 49.853 47.8927 49.379 48.1666 48.8523C48.4339 48.3387 48.6143 47.7856 48.7012 47.2194C48.7279 47.0285 48.748 46.8375 48.7547 46.6466C48.7814 46.054 48.7012 45.4615 48.5208 44.8952C48.4606 44.7043 48.3871 44.5134 48.307 44.3224C48.2134 44.1183 48.1065 43.9208 47.9929 43.7364L47.9996 43.743Z" fill="white"/>
<path d="M47.5704 44.6443C48.1384 45.9282 48.0515 47.3372 47.4434 48.496C46.9823 49.3783 46.2206 50.1157 45.2249 50.5437L33.5445 55.5805C32.5088 56.0282 31.3929 56.0611 30.3905 55.7583C29.1677 55.3895 28.1119 54.5139 27.5573 53.2695C26.8624 51.7025 27.1497 49.9511 28.152 48.7001C28.5997 48.1405 29.1878 47.6796 29.8961 47.3767L41.5765 42.3399C42.8929 41.7737 44.3362 41.8659 45.519 42.4782C46.401 42.9325 47.136 43.6765 47.5637 44.6443H47.5704Z" fill="white"/>
<path d="M46.9821 47.4564C46.521 48.3387 45.7593 49.0761 44.7636 49.5041L33.0832 54.5409C32.0475 54.9886 30.9316 55.0215 29.9292 54.7187C28.8801 54.4026 27.958 53.7113 27.3633 52.7369C27.4167 52.9146 27.4769 53.0924 27.5571 53.2702C28.1117 54.5146 29.1675 55.3902 30.3903 55.7589C31.3926 56.0618 32.5085 56.0289 33.5443 55.5812L45.2247 50.5444C46.2203 50.1164 46.9821 49.379 47.4432 48.4967C48.0513 47.3379 48.1381 45.9355 47.5701 44.645C47.49 44.4673 47.4031 44.3027 47.3029 44.1447C47.637 45.2771 47.5033 46.4557 46.9821 47.4499V47.4564Z" fill="#F3F1F0"/>
<path d="M39.3918 53.0661L45.232 50.5444C46.2276 50.1164 46.9894 49.379 47.4505 48.4968C48.0585 47.338 48.1454 45.9356 47.5774 44.6451C47.1498 43.6772 46.4147 42.9332 45.5327 42.4789C44.3499 41.8666 42.9066 41.7678 41.5902 42.3407L35.75 44.8624L39.3985 53.0661H39.3918Z" fill="#F0F0F0"/>
<path d="M47.3033 44.1453C47.6374 45.2777 47.5037 46.4563 46.9825 47.4505C46.5214 48.3327 45.7597 49.0701 44.764 49.4981L38.9238 52.0198L39.3849 53.0601L45.2251 50.5384C46.2207 50.1104 46.9825 49.373 47.4436 48.4907C48.0517 47.3319 48.1385 45.9295 47.5705 44.6391C47.4904 44.4613 47.4035 44.2967 47.3033 44.1387V44.1453Z" fill="#E6E6E6"/>
<path opacity="0.3" d="M33.103 47.3116C33.1699 47.4696 33.103 47.6539 32.9427 47.7198L30.0025 48.9905C29.8421 49.0563 29.6617 48.9905 29.5882 48.8325C29.5214 48.6745 29.5882 48.4901 29.7486 48.4243L32.6887 47.1535C32.8491 47.0877 33.0362 47.1535 33.103 47.3116ZM42.0705 43.1043L34.092 46.5412C33.9316 46.6071 33.8581 46.7914 33.9316 46.9494C33.9984 47.1074 34.1856 47.1799 34.3459 47.1075L42.3244 43.6706C42.4848 43.6047 42.5583 43.4204 42.4848 43.2624C42.418 43.1043 42.2309 43.0319 42.0705 43.1043Z" fill="white"/>
<g style="mix-blend-mode:multiply" opacity="0.4">
<path d="M77.2066 31.7335C77.1799 31.694 77.1531 31.6545 77.1264 31.6216C76.6186 30.8315 75.9303 30.1928 75.1151 29.7715C73.6651 29.0209 71.9745 28.9616 70.4777 29.6069L58.7972 34.6437C57.9954 34.9926 57.2804 35.5325 56.7391 36.2041C55.67 37.5472 55.3225 39.3249 55.8103 40.9578C55.8705 41.1685 55.944 41.3792 56.0375 41.5833C56.6656 42.9923 57.8818 44.0589 59.3719 44.5066C59.6659 44.5988 59.9733 44.658 60.2807 44.6975C61.2296 44.816 62.2052 44.6778 63.0872 44.2959L74.7676 39.2591C75.3423 39.0155 75.8568 38.6731 76.3045 38.2517C76.7389 37.8435 77.0997 37.3695 77.3737 36.8427C77.6409 36.3292 77.8214 35.7761 77.9082 35.2099C77.935 35.019 77.955 34.828 77.9617 34.6371C77.9884 34.0445 77.9082 33.4519 77.7278 32.8857C77.6677 32.6948 77.5942 32.5038 77.514 32.3129C77.4204 32.1088 77.3135 31.9113 77.1999 31.7269L77.2066 31.7335Z" fill="#E6E6E6"/>
</g>
<path d="M77.3668 31.0751C77.34 31.0356 77.3133 30.996 77.2866 30.9631C76.7787 30.173 76.0905 29.5344 75.2752 29.113C73.8252 28.3624 72.1346 28.3032 70.6378 28.9484L58.9574 33.9852C58.1555 34.3342 57.4406 34.8741 56.8993 35.5456C55.8302 36.8888 55.4827 38.6665 55.9705 40.2993C56.0306 40.51 56.1041 40.7207 56.1977 40.9248C56.8258 42.3338 58.0419 43.4004 59.5321 43.8481C59.8261 43.9403 60.1335 43.9996 60.4408 44.0391C61.3897 44.1576 62.3653 44.0193 63.2474 43.6375L74.9278 38.6006C75.5024 38.357 76.017 38.0147 76.4647 37.5933C76.899 37.1851 77.2598 36.711 77.5338 36.1843C77.8011 35.6707 77.9815 35.1177 78.0684 34.5514C78.0951 34.3605 78.1152 34.1696 78.1218 33.9786C78.1486 33.3861 78.0684 32.7935 77.888 32.2273C77.8278 32.0363 77.7543 31.8454 77.6741 31.6545C77.5806 31.4503 77.4737 31.2528 77.3601 31.0685L77.3668 31.0751Z" fill="white"/>
<path d="M76.9454 31.983C77.5134 33.2669 77.4265 34.6758 76.8184 35.8346C76.3574 36.7169 75.5956 37.4543 74.5999 37.8823L62.9195 42.9191C61.8838 43.3668 60.7679 43.3997 59.7655 43.0969C58.5427 42.7282 57.4869 41.8525 56.9323 40.6081C56.2374 39.0411 56.5247 37.2897 57.527 36.0387C57.9747 35.4791 58.5628 35.0182 59.2711 34.7088L70.9515 29.672C72.2679 29.1057 73.7112 29.1979 74.894 29.8102C75.776 30.2645 76.511 31.0085 76.9387 31.9764L76.9454 31.983Z" fill="white"/>
<path d="M76.3571 34.7884C75.896 35.6706 75.1343 36.408 74.1386 36.836L62.4582 41.8728C61.4225 42.3205 60.3066 42.3534 59.3042 42.0506C58.2551 41.7345 57.333 41.0432 56.7383 40.0688C56.7917 40.2465 56.8519 40.4243 56.9321 40.6021C57.4867 41.8465 58.5425 42.7221 59.7653 43.0909C60.7676 43.3937 61.8835 43.3608 62.9193 42.9131L74.5997 37.8763C75.5953 37.4483 76.3571 36.7109 76.8182 35.8286C77.4263 34.6698 77.5131 33.2674 76.9451 31.977C76.865 31.7992 76.7781 31.6346 76.6778 31.4766C77.012 32.609 76.8783 33.7876 76.3571 34.7818V34.7884Z" fill="#F3F1F0"/>
<path d="M68.759 40.3981L74.5992 37.8764C75.5948 37.4485 76.3566 36.7111 76.8177 35.8288C77.4257 34.67 77.5126 33.2676 76.9446 31.9771C76.517 31.0093 75.7819 30.2653 74.8999 29.811C73.7171 29.1986 72.2738 29.0999 70.9574 29.6727L65.1172 32.1944L68.7657 40.3981H68.759Z" fill="#F0F0F0"/>
<path d="M76.6783 31.4833C77.0124 32.6157 76.8787 33.7943 76.3575 34.7885C75.8964 35.6707 75.1347 36.4082 74.139 36.8361L68.2988 39.3578L68.7599 40.3981L74.6001 37.8764C75.5957 37.4484 76.3575 36.711 76.8186 35.8288C77.4267 34.67 77.5135 33.2676 76.9455 31.9771C76.8654 31.7993 76.7785 31.6347 76.6783 31.4767V31.4833Z" fill="#E6E6E6"/>
<path opacity="0.3" d="M62.4722 34.6436C62.539 34.8016 62.4722 34.986 62.3118 35.0518L59.3717 36.3225C59.2113 36.3884 59.0242 36.3225 58.9574 36.1645C58.8905 36.0065 58.9574 35.8221 59.1177 35.7563L62.0579 34.4856C62.2183 34.4197 62.3987 34.4856 62.4722 34.6436ZM71.4396 30.4364L63.4611 33.8732C63.3008 33.9391 63.2273 34.1234 63.3008 34.2815C63.3676 34.4395 63.5547 34.5119 63.7151 34.4395L71.6936 31.0026C71.8539 30.9368 71.9274 30.7524 71.8539 30.5944C71.7871 30.4364 71.6 30.3639 71.4396 30.4364Z" fill="white"/>
<g style="mix-blend-mode:multiply" opacity="0.4">
<path d="M54.2535 58.8526C54.2268 58.8131 54.2 58.7736 54.1733 58.7407C53.6654 57.9506 52.9772 57.312 52.162 56.8906C50.7119 56.14 49.0213 56.0808 47.5245 56.726L35.8441 61.7628C35.0423 62.1118 34.3273 62.6517 33.786 63.3232C32.7169 64.6664 32.3694 66.4441 32.8572 68.0769C32.9173 68.2876 32.9908 68.4983 33.0844 68.7024C33.7125 70.1114 34.9287 71.178 36.4188 71.6257C36.7128 71.7179 37.0202 71.7772 37.3276 71.8167C38.2764 71.9352 39.252 71.7969 40.1341 71.415L51.8145 66.3782C52.3892 66.1346 52.9037 65.7922 53.3514 65.3709C53.7857 64.9627 54.1466 64.4886 54.4205 63.9619C54.6878 63.4483 54.8682 62.8953 54.9551 62.329C54.9818 62.1381 55.0019 61.9472 55.0086 61.7562C55.0353 61.1637 54.9551 60.5711 54.7747 60.0049C54.7146 59.8139 54.641 59.623 54.5609 59.432C54.4673 59.2279 54.3604 59.0304 54.2468 58.8461L54.2535 58.8526Z" fill="#E6E6E6"/>
</g>
<path d="M54.4214 58.1942C54.3947 58.1547 54.368 58.1152 54.3413 58.0823C53.8334 57.2922 53.1452 56.6535 52.3299 56.2321C50.8799 55.4816 49.1893 55.4223 47.6925 56.0675L36.0121 61.1044C35.2102 61.4533 34.4952 61.9932 33.954 62.6648C32.8848 64.0079 32.5374 65.7856 33.0252 67.4185C33.0853 67.6292 33.1588 67.8399 33.2524 68.044C33.8805 69.453 35.0966 70.5196 36.5868 70.9673C36.8808 71.0595 37.1882 71.1187 37.4955 71.1582C38.4444 71.2767 39.42 71.1385 40.302 70.7566L51.9825 65.7198C52.5571 65.4762 53.0716 65.1338 53.5194 64.7124C53.9537 64.3042 54.3145 63.8302 54.5885 63.3034C54.8558 62.7899 55.0362 62.2368 55.1231 61.6706C55.1498 61.4796 55.1698 61.2887 55.1765 61.0978C55.2033 60.5052 55.1231 59.9126 54.9427 59.3464C54.8825 59.1555 54.809 58.9645 54.7288 58.7736C54.6353 58.5695 54.5284 58.372 54.4148 58.1876L54.4214 58.1942Z" fill="white"/>
<path d="M53.9923 59.0955C54.5602 60.3794 54.4734 61.7884 53.8653 62.9472C53.4042 63.8295 52.6425 64.5669 51.6468 64.9948L39.9664 70.0316C38.9307 70.4794 37.8147 70.5123 36.8124 70.2094C35.5896 69.8407 34.5338 68.965 33.9792 67.7206C33.2842 66.1536 33.5716 64.4023 34.5739 63.1513C35.0216 62.5917 35.6096 62.1308 36.3179 61.8279L47.9984 56.7911C49.3147 56.2249 50.7581 56.317 51.9408 56.9294C52.8229 57.3837 53.5579 58.1277 53.9856 59.0955H53.9923Z" fill="white"/>
<path d="M53.404 61.9076C52.9429 62.7899 52.1811 63.5273 51.1855 63.9553L39.5051 68.9921C38.4693 69.4398 37.3534 69.4727 36.3511 69.1698C35.302 68.8538 34.3799 68.1625 33.7852 67.188C33.8386 67.3658 33.8988 67.5436 33.9789 67.7213C34.5336 68.9657 35.5893 69.8414 36.8122 70.2101C37.8145 70.513 38.9304 70.4801 39.9662 70.0323L51.6466 64.9955C52.6422 64.5676 53.404 63.8302 53.8651 62.9479C54.4731 61.7891 54.56 60.3867 53.992 59.0962C53.9118 58.9184 53.825 58.7538 53.7247 58.5958C54.0588 59.7283 53.9252 60.9068 53.404 61.901V61.9076Z" fill="#F3F1F0"/>
<path d="M45.8058 67.5173L51.6461 64.9956C52.6417 64.5676 53.4035 63.8302 53.8645 62.9479C54.4726 61.7891 54.5595 60.3867 53.9915 59.0962C53.5638 58.1284 52.8288 57.3844 51.9467 56.9301C50.764 56.3178 49.3207 56.219 48.0043 56.7918L42.1641 59.3135L45.8125 67.5173H45.8058Z" fill="#F0F0F0"/>
<path d="M53.7251 58.5964C54.0592 59.7289 53.9256 60.9074 53.4044 61.9016C52.9433 62.7839 52.1816 63.5213 51.1859 63.9493L45.3457 66.471L45.8068 67.5113L51.647 64.9896C52.6426 64.5616 53.4044 63.8242 53.8655 62.9419C54.4735 61.7831 54.5604 60.3807 53.9924 59.0902C53.9122 58.9125 53.8254 58.7479 53.7251 58.5898V58.5964Z" fill="#E6E6E6"/>
<path opacity="0.3" d="M39.5191 61.7627C39.5859 61.9207 39.5191 62.0985 39.3587 62.1709L36.4185 63.4417C36.2582 63.5075 36.0711 63.4417 36.0042 63.2836C35.9374 63.1256 36.0042 62.9479 36.1646 62.8754L39.1048 61.6047C39.2651 61.5389 39.4522 61.6047 39.5191 61.7627ZM48.4932 57.5555L40.5147 60.9924C40.3543 61.0582 40.2808 61.2426 40.3543 61.4006C40.4211 61.5586 40.6082 61.631 40.7686 61.5586L48.7471 58.1217C48.9075 58.0559 48.981 57.8715 48.9075 57.7135C48.8407 57.5555 48.6536 57.4831 48.4932 57.5555Z" fill="white"/>
<g style="mix-blend-mode:multiply" opacity="0.4">
<path d="M83.6207 46.1847C83.5939 46.1452 83.5672 46.1057 83.5405 46.0728C83.0326 45.2827 82.3444 44.644 81.5292 44.2226C80.0791 43.472 78.3885 43.4128 76.8917 44.058L65.2113 49.0948C64.4094 49.4438 63.6945 49.9837 63.1532 50.6553C62.0841 51.9984 61.7366 53.7761 62.2244 55.409C62.2845 55.6196 62.358 55.8303 62.4516 56.0344C63.0797 57.4434 64.2959 58.51 65.786 58.9578C66.08 59.0499 66.3874 59.1092 66.6947 59.1487C67.6436 59.2672 68.6192 59.129 69.5013 58.7471L81.1817 53.7103C81.7563 53.4667 82.2709 53.1243 82.7186 52.7029C83.1529 52.2947 83.5138 51.8206 83.7877 51.2939C84.055 50.7804 84.2354 50.2273 84.3223 49.6611C84.349 49.4701 84.3691 49.2792 84.3757 49.0882C84.4025 48.4957 84.3223 47.9031 84.1419 47.3369C84.0817 47.146 84.0082 46.955 83.928 46.7641C83.8345 46.56 83.7276 46.3624 83.614 46.1781L83.6207 46.1847Z" fill="#E6E6E6"/>
</g>
<path d="M83.7886 45.5262C83.7619 45.4867 83.7352 45.4472 83.7084 45.4143C83.2006 44.6242 82.5123 43.9856 81.6971 43.5642C80.2471 42.8136 78.5565 42.7543 77.0597 43.3996L65.3793 48.4364C64.5774 48.7853 63.8624 49.3252 63.3212 49.9968C62.252 51.34 61.9046 53.1177 62.3924 54.7505C62.4525 54.9612 62.526 55.1719 62.6195 55.376C63.2477 56.785 64.4638 57.8516 65.9539 58.2993C66.248 58.3915 66.5553 58.4508 66.8627 58.4903C67.8116 58.6088 68.7872 58.4705 69.6692 58.0886L81.3496 53.0518C81.9243 52.8082 82.4388 52.4658 82.8865 52.0445C83.3209 51.6362 83.6817 51.1622 83.9557 50.6355C84.223 50.1219 84.4034 49.5688 84.4903 49.0026C84.517 48.8117 84.537 48.6207 84.5437 48.4298C84.5704 47.8372 84.4903 47.2447 84.3098 46.6784C84.2497 46.4875 84.1762 46.2966 84.096 46.1056C84.0025 45.9015 83.8955 45.704 83.7819 45.5196L83.7886 45.5262Z" fill="white"/>
<path d="M83.3594 46.4341C83.9274 47.718 83.8406 49.127 83.2325 50.2858C82.7714 51.1681 82.0096 51.9055 81.014 52.3335L69.3336 57.3703C68.2978 57.818 67.1819 57.8509 66.1796 57.548C64.9568 57.1793 63.901 56.3036 63.3464 55.0593C62.6514 53.4922 62.9388 51.7409 63.9411 50.4899C64.3888 49.9303 64.9768 49.4694 65.6851 49.1599L77.3655 44.1231C78.6819 43.5569 80.1253 43.6491 81.308 44.2614C82.1901 44.7157 82.9251 45.4597 83.3528 46.4275L83.3594 46.4341Z" fill="white"/>
<path d="M82.779 49.2395C82.3179 50.1218 81.5561 50.8592 80.5605 51.2872L68.8801 56.324C67.8444 56.7717 66.7284 56.8046 65.7261 56.5017C64.677 56.1857 63.7549 55.4944 63.1602 54.5199C63.2136 54.6977 63.2738 54.8755 63.3539 55.0533C63.9086 56.2976 64.9643 57.1733 66.1872 57.542C67.1895 57.8449 68.3054 57.812 69.3412 57.3643L81.0216 52.3274C82.0172 51.8995 82.779 51.1621 83.2401 50.2798C83.8481 49.121 83.935 47.7186 83.367 46.4281C83.2868 46.2504 83.2 46.0858 83.0997 45.9277C83.4338 47.0602 83.3002 48.2387 82.779 49.2329V49.2395Z" fill="#F3F1F0"/>
<path d="M75.1808 54.8493L81.0211 52.3276C82.0167 51.8996 82.7785 51.1622 83.2395 50.28C83.8476 49.1212 83.9345 47.7188 83.3665 46.4283C82.9388 45.4604 82.2038 44.7164 81.3217 44.2621C80.139 43.6498 78.6957 43.551 77.3793 44.1239L71.5391 46.6456L75.1875 54.8493H75.1808Z" fill="#F0F0F0"/>
<path d="M83.0982 45.9343C83.4323 47.0668 83.2986 48.2453 82.7774 49.2395C82.3164 50.1218 81.5546 50.8592 80.559 51.2872L74.7188 53.8089L75.1798 54.8491L81.02 52.3274C82.0157 51.8995 82.7774 51.1621 83.2385 50.2798C83.8466 49.121 83.9335 47.7186 83.3655 46.4281C83.2853 46.2504 83.1984 46.0858 83.0982 45.9277V45.9343Z" fill="#E6E6E6"/>
<path opacity="0.3" d="M68.8921 49.0948C68.9589 49.2528 68.8921 49.4371 68.7317 49.503L65.7916 50.7737C65.6312 50.8395 65.4508 50.7737 65.3773 50.6157C65.3105 50.4577 65.3773 50.2733 65.5377 50.2075L68.4778 48.9367C68.6382 48.8709 68.8186 48.9367 68.8921 49.0948ZM77.8596 44.8875L69.8811 48.3244C69.7207 48.3903 69.6472 48.5746 69.7207 48.7326C69.7875 48.8907 69.9746 48.9631 70.135 48.8907L78.1135 45.4538C78.2739 45.3879 78.3474 45.2036 78.2739 45.0456C78.207 44.8875 78.0199 44.8151 77.8596 44.8875Z" fill="white"/>
<path d="M61.2389 65.3463L61.6797 65.1562L29.2286 -7.89187L28.7879 -7.70178L61.2389 65.3463Z" fill="white"/>
</svg>
