<svg width="91" height="88" viewBox="0 0 91 88" fill="none" xmlns="http://www.w3.org/2000/svg">
<g clip-path="url(#clip0_122_950)">
<path opacity="0.7" d="M59.1258 -13.9599C59.164 1.31993 64.9622 15.0412 70.7084 28.6555C76.5017 42.3814 82.241 55.9992 82.2112 71.1507L26.4186 86.1003C26.3805 70.8204 20.5832 57.0989 14.837 43.4846C9.04375 29.7588 3.30353 16.1411 3.33326 0.989639L59.1258 -13.9599Z" stroke="#F3F1F0"/>
<path d="M57.8559 5.19406L32.1935 12.0703C32.0563 12.107 31.9124 12.0241 31.8757 11.8871C31.839 11.7501 31.9221 11.6063 32.0593 11.5695L57.7217 4.69331C57.8589 4.65656 58.0028 4.73951 58.0395 4.87651C58.0762 5.0135 57.9931 5.1573 57.8559 5.19406Z" fill="#F3F1F0"/>
<path d="M59.3499 10.252L33.6875 17.1283C33.5503 17.165 33.4016 17.0833 33.3602 16.9476C33.3188 16.8119 33.3925 16.6706 33.5296 16.6338L59.1921 9.75762C59.3293 9.72086 59.4779 9.80255 59.5193 9.93828C59.5655 10.0727 59.4871 10.2153 59.3499 10.252Z" fill="#F3F1F0"/>
<path d="M61.0472 15.2816L12.7829 28.214C12.6457 28.2507 12.4923 28.1703 12.4414 28.0371C12.3905 27.9039 12.4642 27.7627 12.6014 27.7259L60.8657 14.7935C61.0029 14.7568 61.1562 14.8372 61.2024 14.9717C61.2533 15.1049 61.1796 15.2461 61.0424 15.2829L61.0472 15.2816Z" fill="#F3F1F0"/>
<path d="M76.7586 57.874L28.4943 70.8064C28.3571 70.8431 28.218 70.7589 28.1907 70.6194C28.1587 70.4811 28.2466 70.336 28.3838 70.2993L76.6481 57.3669C76.7853 57.3301 76.9244 57.4144 76.9564 57.5526C76.9884 57.6909 76.9005 57.836 76.7633 57.8727L76.7586 57.874Z" fill="#F3F1F0"/>
<path d="M46.1565 75.4575L29.8791 79.819C29.742 79.8558 29.617 79.7677 29.6039 79.6244C29.5909 79.4811 29.6929 79.3322 29.8301 79.2954L46.1074 74.934C46.2446 74.8972 46.3696 74.9852 46.3827 75.1286C46.3957 75.2719 46.2936 75.4207 46.1565 75.4575Z" fill="#F3F1F0"/>
<path d="M78.3049 66.8423L62.0276 71.2038C61.8904 71.2405 61.7654 71.1525 61.7524 71.0092C61.7393 70.8658 61.8414 70.717 61.9786 70.6802L78.2559 66.3187C78.393 66.282 78.518 66.37 78.5311 66.5133C78.5441 66.6566 78.4421 66.8055 78.3049 66.8423Z" fill="#F3F1F0"/>
<path d="M21.1537 8.19333C21.7284 10.338 20.477 12.1011 17.9037 12.7907L15.9642 13.3103L16.6743 15.9605L14.4463 16.5575L11.8691 6.93945L16.0366 5.82278C18.61 5.13326 20.5753 6.03447 21.1537 8.19333ZM18.8973 8.79793C18.6138 7.73976 17.7621 7.3047 16.3997 7.66975L14.5832 8.15647L15.4781 11.4963L17.2946 11.0096C18.657 10.6446 19.1771 9.84193 18.8973 8.79793Z" fill="#E6E6E6"/>
<path d="M25.801 19.404L22.5835 16.6865L21.1936 20.6385L18.6345 21.3243L20.8864 15.4805L16.2383 11.6628L18.7691 10.9847L21.8184 13.5093L23.1542 9.80968L25.562 9.16452L23.4477 14.7081L28.3709 18.7205L25.7976 19.41L25.801 19.404Z" fill="#E6E6E6"/>
<path d="M16.6894 30.5684C16.8312 31.0975 16.5225 31.5346 15.8839 31.7058L15.4061 31.8338L15.582 32.4904L15.0286 32.6387L14.3906 30.2578L15.4219 29.9815C16.0605 29.8104 16.5464 30.0346 16.6894 30.5684ZM16.1313 30.718C16.0616 30.4581 15.8496 30.3479 15.5137 30.4379L15.0643 30.5583L15.2858 31.385L15.7352 31.2646C16.0711 31.1746 16.2009 30.9778 16.1313 30.718Z" fill="#F3F1F0"/>
<path d="M18.0884 29.8306L18.2201 30.3219C18.1775 30.3333 18.1384 30.3387 18.1005 30.3488C17.8073 30.4274 17.6563 30.64 17.75 30.9896L17.9817 31.8541L17.4518 31.996L16.962 30.1678L17.4681 30.0322L17.5327 30.2731C17.6136 30.0641 17.8059 29.9113 18.0897 29.8353L18.0884 29.8306Z" fill="#F3F1F0"/>
<path d="M20.4624 30.3641L19.0764 30.7354C19.1891 30.9482 19.4211 31.038 19.7002 30.9632C19.8941 30.9113 20.0161 30.8178 20.1122 30.6655L20.4783 30.8965C20.3599 31.1358 20.1323 31.3082 19.8012 31.3969C19.1673 31.5668 18.6494 31.2802 18.5038 30.737C18.3583 30.1937 18.6682 29.6853 19.2264 29.5358C19.7846 29.3862 20.2734 29.64 20.4317 30.2305C20.443 30.273 20.4535 30.331 20.4602 30.3748L20.4624 30.3641ZM18.9846 30.4309L19.8881 30.1888C19.7883 29.9675 19.5727 29.8632 19.3362 29.9266C19.0997 29.99 18.9592 30.1846 18.9846 30.4309Z" fill="#F3F1F0"/>
<path d="M20.8062 30.9098L20.8787 30.4803C21.0674 30.5411 21.3371 30.5448 21.5642 30.4839C21.8101 30.418 21.8823 30.3278 21.8557 30.2286C21.776 29.931 20.7501 30.5299 20.5551 29.8024C20.4627 29.4576 20.7091 29.1283 21.2437 28.9851C21.4944 28.9179 21.7886 28.8998 21.9915 28.9568L21.9178 29.3816C21.7102 29.3259 21.5215 29.341 21.3512 29.3866C21.1147 29.45 21.0309 29.5534 21.0562 29.6479C21.1398 29.9597 22.1657 29.3608 22.3593 30.0835C22.4505 30.4237 22.1981 30.7495 21.6494 30.8965C21.3419 30.9789 21.0022 30.9788 20.8015 30.9111L20.8062 30.9098Z" fill="#F3F1F0"/>
<path d="M22.4511 29.6686C22.303 29.1159 22.625 28.6144 23.221 28.4547C23.6041 28.3521 23.9512 28.4363 24.1647 28.7031L23.8126 29.0354C23.6664 28.8873 23.4995 28.851 23.334 28.8953C23.0643 28.9676 22.9068 29.2123 22.9916 29.5288C23.0764 29.8453 23.3399 29.9772 23.6049 29.9063C23.7704 29.8619 23.8968 29.747 23.9493 29.5456L24.4203 29.6574C24.3664 29.9858 24.1092 30.2369 23.726 30.3396C23.13 30.4993 22.5992 30.2213 22.4524 29.6733L22.4511 29.6686Z" fill="#F3F1F0"/>
<path d="M25.481 27.8481L25.6126 28.3394C25.5701 28.3508 25.531 28.3563 25.4931 28.3664C25.1998 28.445 25.0489 28.6576 25.1426 29.0071L25.3742 29.8716L24.8444 30.0136L24.3546 28.1854L24.8607 28.0498L24.9253 28.2907C25.0062 28.0817 25.1984 27.9289 25.4823 27.8529L25.481 27.8481Z" fill="#F3F1F0"/>
<path d="M25.5876 27.2585C25.5433 27.0932 25.6403 26.9254 25.8389 26.8722C26.0376 26.819 26.203 26.9063 26.246 27.0669C26.2929 27.2417 26.1958 27.4095 25.9972 27.4627C25.7985 27.5159 25.6319 27.4239 25.5863 27.2538L25.5876 27.2585ZM25.8019 27.7935L26.3317 27.6515L26.8215 29.4797L26.2917 29.6217L25.8019 27.7935Z" fill="#F3F1F0"/>
<path d="M29.0645 27.8954C29.219 28.4717 28.9191 28.942 28.4035 29.0801C28.1764 29.141 27.9682 29.1208 27.7905 29.0064L28.0196 29.8614L27.4898 30.0034L26.8227 27.5139L27.3289 27.3782L27.3858 27.5908C27.4753 27.3947 27.6537 27.2659 27.8997 27.2C28.4153 27.0618 28.9114 27.3238 29.0645 27.8954ZM28.5253 28.0399C28.4405 27.7234 28.1911 27.5877 27.9215 27.6599C27.6519 27.7322 27.5038 27.9744 27.5886 28.2909C27.6735 28.6074 27.9228 28.7431 28.1924 28.6709C28.462 28.5986 28.6101 28.3564 28.5253 28.0399Z" fill="#F3F1F0"/>
<path d="M30.8186 28.3125C30.7313 28.4219 30.5794 28.4981 30.4185 28.5412C29.9881 28.6565 29.6731 28.503 29.5567 28.0684L29.3554 27.3172L29.0716 27.3933L28.9627 26.987L29.2466 26.911L29.1276 26.4669L29.6574 26.325L29.7764 26.769L30.2305 26.6473L30.3393 27.0536L29.8852 27.1753L30.0852 27.9217C30.127 28.0776 30.2349 28.1398 30.3768 28.1017C30.4572 28.0802 30.5266 28.0363 30.572 27.9786L30.8139 28.3137L30.8186 28.3125Z" fill="#F3F1F0"/>
<path d="M30.4352 25.9597C30.3909 25.7944 30.4879 25.6266 30.6866 25.5734C30.8853 25.5201 31.0506 25.6075 31.0937 25.7681C31.1405 25.9429 31.0435 26.1106 30.8448 26.1639C30.6461 26.2171 30.4795 26.1251 30.4339 25.955L30.4352 25.9597ZM30.6495 26.4947L31.1793 26.3527L31.6692 28.1809L31.1394 28.3229L30.6495 26.4947Z" fill="#F3F1F0"/>
<path d="M31.7792 27.1686C31.6311 26.6159 31.9531 26.1144 32.5349 25.9585C33.1168 25.8026 33.6428 26.0819 33.7897 26.6299C33.9365 27.1779 33.6205 27.6828 33.0387 27.8387C32.4569 27.9946 31.9261 27.7166 31.7792 27.1686ZM33.2551 26.7731C33.1703 26.4566 32.921 26.3209 32.6514 26.3931C32.3817 26.4654 32.2337 26.7076 32.3185 27.0241C32.4033 27.3406 32.6573 27.4751 32.9222 27.4041C33.1872 27.3331 33.3399 27.0896 33.2551 26.7731Z" fill="#F3F1F0"/>
<path d="M35.9775 25.9028L36.2585 26.9516L35.7287 27.0935L35.4705 26.1298C35.3908 25.8322 35.2181 25.7367 34.9864 25.7988C34.7309 25.8673 34.5882 26.0726 34.6781 26.408L34.9198 27.3103L34.39 27.4522L33.9002 25.624L34.4063 25.4884L34.4633 25.701C34.5634 25.5071 34.7582 25.3637 35.0042 25.2978C35.4347 25.1825 35.8282 25.3454 35.9775 25.9028Z" fill="#F3F1F0"/>
<path d="M36.1987 25.3318C36.1455 25.1334 36.258 24.9666 36.4425 24.9171C36.6269 24.8677 36.8078 24.956 36.8609 25.1544C36.9141 25.3528 36.8029 25.5243 36.6184 25.5738C36.4339 25.6232 36.2493 25.5208 36.1987 25.3318ZM36.5252 26.5506C36.4721 26.3522 36.5845 26.1854 36.769 26.1359C36.9535 26.0865 37.1343 26.1747 37.1875 26.3732C37.2407 26.5716 37.1295 26.7431 36.945 26.7926C36.7605 26.842 36.5759 26.7396 36.5252 26.5506Z" fill="#F3F1F0"/>
<path d="M79.915 13.1324L70.7875 12.7119C69.1369 12.6359 67.7362 13.9108 67.659 15.5595L66.1941 46.8243C66.1169 48.473 67.3924 49.8712 69.043 49.9472L78.1704 50.3677C79.8211 50.4437 81.2218 49.1688 81.299 47.5201L82.7638 16.2553C82.8411 14.6066 81.5656 13.2084 79.915 13.1324Z" fill="black"/>
<path opacity="0.8" d="M82.68 15.4279C82.7496 15.6877 82.7732 15.9649 82.759 16.2523L81.2948 47.5147C81.2882 47.6228 81.2804 47.7261 81.2632 47.832C81.0348 49.3261 79.7097 50.4356 78.1691 50.3623L69.0372 49.9434C67.4159 49.8716 66.1545 48.5134 66.1872 46.8945L67.0335 28.8606L67.6561 15.5549C67.7323 13.9092 69.1342 12.6323 70.7818 12.7073L79.9136 13.1262C80.1193 13.1369 80.3145 13.1656 80.5054 13.2157C81.592 13.4866 82.4318 14.3501 82.68 15.4279Z" fill="white"/>
<g opacity="0.6">
<path opacity="0.5" d="M66.6505 37.0091L67.2617 24.0204L75.8831 12.9409L80.5095 13.2152C81.596 13.486 82.4358 14.3496 82.6841 15.4274L66.6553 37.0079L66.6505 37.0091Z" fill="white"/>
</g>
<path opacity="0.5" d="M67.5071 18.7995L67.6567 15.5545C67.7316 13.9041 69.1348 12.6319 70.7824 12.7069L72.1483 12.7713L67.5024 18.8008L67.5071 18.7995Z" fill="white"/>
<path d="M73.2606 17.1296C73.2318 17.7601 72.6982 18.2473 72.067 18.219C71.4358 18.1907 70.9483 17.658 70.9771 17.0275C71.0059 16.3971 71.5395 15.9098 72.1707 15.9381C72.8019 15.9665 73.2907 16.5038 73.2606 17.1296Z" fill="#E6E6E6"/>
<path d="M72.9246 24.2991C72.8958 24.9296 72.3622 25.4169 71.731 25.3885C71.0997 25.3602 70.611 24.8228 70.6411 24.1971C70.6711 23.5713 71.2082 23.078 71.8347 23.1076C72.4659 23.136 72.9534 23.6686 72.9246 24.2991Z" fill="#E6E6E6"/>
<path d="M72.5847 31.4729C72.5559 32.1034 72.0223 32.5907 71.3911 32.5624C70.7599 32.534 70.2711 31.9966 70.3012 31.3709C70.3313 30.7451 70.8683 30.2519 71.4948 30.2815C72.126 30.3098 72.6148 30.8472 72.5847 31.4729Z" fill="#E6E6E6"/>
<path d="M72.2507 38.6448C72.2219 39.2753 71.6883 39.7626 71.0571 39.7342C70.4259 39.7059 69.9372 39.1685 69.9672 38.5428C69.9973 37.917 70.5344 37.4237 71.1608 37.4533C71.792 37.4817 72.2795 38.0143 72.2507 38.6448Z" fill="#E6E6E6"/>
<path d="M71.9169 45.819C71.8881 46.4495 71.3497 46.9381 70.7233 46.9085C70.092 46.8801 69.6046 46.3475 69.6334 45.717C69.6621 45.0865 70.2005 44.598 70.827 44.6276C71.4534 44.6572 71.9457 45.1886 71.9169 45.819Z" fill="#E6E6E6"/>
<path d="M79.0301 17.397C79.0013 18.0275 78.4677 18.5148 77.8365 18.4865C77.2053 18.4581 76.7178 17.9255 76.7466 17.295C76.7754 16.6645 77.309 16.1772 77.9402 16.2056C78.5714 16.2339 79.0602 16.7713 79.0301 17.397Z" fill="#E6E6E6"/>
<path d="M78.6942 24.565C78.6654 25.1955 78.1318 25.6828 77.5006 25.6544C76.8694 25.6261 76.3806 25.0887 76.4107 24.463C76.4395 23.8325 76.9778 23.3439 77.6043 23.3735C78.2355 23.4019 78.723 23.9345 78.6942 24.565Z" fill="#E6E6E6"/>
<path d="M78.3598 31.739C78.331 32.3694 77.7927 32.858 77.1662 32.8284C76.5397 32.7988 76.0462 32.2627 76.0763 31.6369C76.1051 31.0064 76.6434 30.5179 77.2699 30.5475C77.9011 30.5758 78.3899 31.1132 78.3598 31.739Z" fill="#E6E6E6"/>
<path d="M78.0262 38.9107C77.9974 39.5412 77.4591 40.0297 76.8326 40.0001C76.2014 39.9718 75.7127 39.4344 75.7427 38.8087C75.7715 38.1782 76.3099 37.6897 76.9363 37.7193C77.5675 37.7476 78.055 38.2802 78.0262 38.9107Z" fill="#E6E6E6"/>
<path d="M77.6864 46.0865C77.6576 46.717 77.1193 47.2055 76.4928 47.1759C75.8616 47.1476 75.3741 46.6149 75.4029 45.9845C75.4317 45.354 75.9653 44.8667 76.5965 44.895C77.2277 44.9234 77.7164 45.4607 77.6864 46.0865Z" fill="#E6E6E6"/>
<g opacity="0.4">
<path d="M73.2606 17.1296C73.2318 17.7601 72.6982 18.2473 72.067 18.219C71.4358 18.1907 70.9483 17.658 70.9771 17.0275C71.0059 16.3971 71.5395 15.9098 72.1707 15.9381C72.8019 15.9665 73.2907 16.5038 73.2606 17.1296Z" fill="white"/>
<path d="M72.9246 24.2991C72.8958 24.9296 72.3622 25.4169 71.731 25.3885C71.0997 25.3602 70.611 24.8228 70.6411 24.1971C70.6711 23.5713 71.2082 23.078 71.8347 23.1076C72.4659 23.136 72.9534 23.6686 72.9246 24.2991Z" fill="white"/>
<path d="M72.5847 31.4729C72.5559 32.1034 72.0223 32.5907 71.3911 32.5624C70.7599 32.534 70.2711 31.9966 70.3012 31.3709C70.3313 30.7451 70.8683 30.2519 71.4948 30.2815C72.126 30.3098 72.6148 30.8472 72.5847 31.4729Z" fill="white"/>
<path d="M72.2507 38.6448C72.2219 39.2753 71.6883 39.7626 71.0571 39.7342C70.4259 39.7059 69.9372 39.1685 69.9672 38.5428C69.9973 37.917 70.5344 37.4237 71.1608 37.4533C71.792 37.4817 72.2795 38.0143 72.2507 38.6448Z" fill="white"/>
<path d="M71.9169 45.819C71.8881 46.4495 71.3497 46.9381 70.7233 46.9085C70.092 46.8801 69.6046 46.3475 69.6334 45.717C69.6621 45.0865 70.2005 44.598 70.827 44.6276C71.4534 44.6572 71.9457 45.1886 71.9169 45.819Z" fill="white"/>
</g>
<g opacity="0.4">
<path d="M79.0301 17.397C79.0013 18.0275 78.4677 18.5148 77.8365 18.4865C77.2053 18.4581 76.7178 17.9255 76.7466 17.295C76.7754 16.6645 77.309 16.1772 77.9402 16.2056C78.5714 16.2339 79.0602 16.7713 79.0301 17.397Z" fill="white"/>
<path d="M78.6942 24.565C78.6654 25.1955 78.1318 25.6828 77.5006 25.6544C76.8694 25.6261 76.3806 25.0887 76.4107 24.463C76.4395 23.8325 76.9778 23.3439 77.6043 23.3735C78.2355 23.4019 78.723 23.9345 78.6942 24.565Z" fill="white"/>
<path d="M78.3598 31.739C78.331 32.3694 77.7927 32.858 77.1662 32.8284C76.5397 32.7988 76.0462 32.2627 76.0763 31.6369C76.1051 31.0064 76.6434 30.5179 77.2699 30.5475C77.9011 30.5758 78.3899 31.1132 78.3598 31.739Z" fill="white"/>
<path d="M78.0262 38.9107C77.9974 39.5412 77.4591 40.0297 76.8326 40.0001C76.2014 39.9718 75.7127 39.4344 75.7427 38.8087C75.7715 38.1782 76.3099 37.6897 76.9363 37.7193C77.5675 37.7476 78.055 38.2802 78.0262 38.9107Z" fill="white"/>
<path d="M77.6864 46.0865C77.6576 46.717 77.1193 47.2055 76.4928 47.1759C75.8616 47.1476 75.3741 46.6149 75.4029 45.9845C75.4317 45.354 75.9653 44.8667 76.5965 44.895C77.2277 44.9234 77.7164 45.4607 77.6864 46.0865Z" fill="white"/>
</g>
<path opacity="0.7" d="M72.857 50.4806L59.1278 57.3694C57.8142 58.0302 56.2114 57.4977 55.5507 56.1861L45.9438 37.0596C44.6373 34.473 45.2781 31.4153 47.3032 29.531C47.7325 29.1273 48.2233 28.7832 48.7782 28.5079L55.8654 24.9482C56.5982 24.5797 57.3727 24.3671 58.1436 24.2922C60.6735 24.0649 63.2097 25.3751 64.4218 27.7794L74.0334 46.9047C74.6941 48.2162 74.1598 49.8176 72.8463 50.4784L72.857 50.4806Z" fill="white"/>
<path d="M64.8692 28.6593L46.3809 37.9355L53.5125 52.1304L72.0008 42.8541L64.8692 28.6593Z" fill="#E6E6E6"/>
<path opacity="0.4" d="M64.8692 28.6593L46.3809 37.9355L53.5125 52.1304L72.0008 42.8541L64.8692 28.6593Z" fill="white"/>
<path d="M45.2953 24.7613L55.3799 19.7015C56.0627 19.3589 56.8974 19.6351 57.2399 20.3168L58.195 22.2179L45.6332 28.5207L44.678 26.6196C44.3355 25.9378 44.6125 25.1039 45.2953 24.7613Z" fill="#E6E6E6"/>
<path opacity="0.7" d="M58.1489 24.2963C57.378 24.3712 56.6035 24.5838 55.8708 24.9523L48.7835 28.512C48.2286 28.7873 47.7378 29.1315 47.3085 29.5351L46.5679 28.0576L57.3283 22.6529L58.1549 24.2997L58.1489 24.2963Z" fill="white"/>
<path opacity="0.3" d="M47.408 30.6981C47.2881 30.3454 46.7812 30.3648 46.6897 30.7234C46.4744 31.5659 46.3205 32.7514 46.7624 33.7571C47.4735 35.3893 56.0759 52.9622 57.3936 55.647C57.5042 55.8705 57.6876 56.0442 57.9126 56.1459C58.2165 56.2771 58.5631 56.2653 58.8503 56.1073L59.3624 55.8233L48.1277 32.8545C48.1277 32.8545 47.7369 31.6985 47.4045 30.7041L47.408 30.6981Z" fill="white"/>
</g>
<defs>
<clipPath id="clip0_122_950">
<rect width="75.6726" height="89.1856" fill="white" transform="translate(0.541016 1.2207) rotate(-15)"/>
</clipPath>
</defs>
</svg>
