<svg width="36" height="86" viewBox="0 0 36 86" fill="none" xmlns="http://www.w3.org/2000/svg">
<path d="M47.7035 28.5236L47.6078 5.30078H19.8267V29.0155L1.45357 78.7367C0.292534 81.8659 2.96171 85.0683 6.72012 85.0683H60.5467C64.3051 85.0683 66.9743 81.8659 65.8133 78.7367L47.7035 28.5131V28.5236Z" fill="white" stroke="#E6E6E6" stroke-linecap="round" stroke-linejoin="round"/>
<path d="M46.9298 37.9121H20.6569L6.97583 76.0482C6.01827 78.7168 8.23261 81.4483 11.3447 81.4483H55.9428C59.0549 81.4483 61.2692 78.7168 60.3117 76.0482L46.9538 37.9121H46.9298Z" fill="#EFEFEF"/>
<path d="M49.6348 1H16.9702C15.734 1 14.7319 1.87622 14.7319 2.95706V4.78851C14.7319 5.86935 15.734 6.74554 16.9702 6.74554H49.6348C50.871 6.74554 51.8731 5.86935 51.8731 4.78851V2.95706C51.8731 1.87622 50.871 1 49.6348 1Z" fill="white" stroke="#E6E6E6" stroke-linecap="round" stroke-linejoin="round"/>
</svg>
