<svg width="265" height="239" viewBox="0 0 265 239" fill="none" xmlns="http://www.w3.org/2000/svg">
<g clip-path="url(#clip0_140_922)">
<path d="M262.675 91.3984C262.58 91.3985 262.488 91.3693 262.41 91.3147L133.834 1.35087C133.443 1.07837 132.978 0.932741 132.502 0.933557C132.026 0.934373 131.561 1.08159 131.171 1.35544L3.52145 91.3138C3.42049 91.385 3.29553 91.4129 3.17406 91.3915C3.05259 91.3701 2.94456 91.301 2.87374 91.1996C2.80292 91.0982 2.77511 90.9726 2.79643 90.8506C2.81775 90.7285 2.88645 90.62 2.98742 90.5489L130.637 0.590478C131.184 0.207158 131.834 0.00110497 132.5 4.43159e-06C133.167 -0.0010961 133.818 0.202807 134.366 0.58432L262.941 90.5479C263.022 90.6048 263.083 90.6862 263.115 90.7804C263.147 90.8745 263.149 90.9764 263.119 91.0713C263.089 91.1662 263.03 91.2491 262.95 91.3079C262.871 91.3668 262.774 91.3985 262.675 91.3984Z" fill="#3F3D56"/>
<path d="M10.8157 94.5874L132.628 3.88574L255.365 101.041L138.905 170.405L75.6765 155.925L10.8157 94.5874Z" fill="#E6E6E6"/>
<path d="M81.0135 213.247H20.8351C20.4656 213.248 20.0996 213.175 19.7581 213.033C19.4166 212.892 19.1062 212.684 18.8448 212.421C18.5833 212.159 18.3759 211.847 18.2344 211.505C18.0929 211.162 18.02 210.794 18.02 210.423C18.02 210.051 18.0929 209.684 18.2344 209.341C18.3759 208.998 18.5833 208.686 18.8448 208.424C19.1062 208.162 19.4166 207.954 19.7581 207.812C20.0996 207.67 20.4656 207.598 20.8351 207.598H81.0135C81.383 207.598 81.749 207.67 82.0905 207.812C82.4321 207.954 82.7424 208.162 83.0039 208.424C83.2653 208.686 83.4728 208.998 83.6143 209.341C83.7558 209.684 83.8286 210.051 83.8286 210.423C83.8286 210.794 83.7558 211.162 83.6143 211.505C83.4728 211.847 83.2653 212.159 83.0039 212.421C82.7424 212.684 82.4321 212.892 82.0905 213.033C81.749 213.175 81.383 213.248 81.0135 213.247Z" fill="#077FFF"/>
<path d="M42.4258 201.103H20.8351C20.4656 201.103 20.0996 201.031 19.7581 200.889C19.4166 200.747 19.1062 200.539 18.8448 200.277C18.5833 200.015 18.3759 199.703 18.2344 199.36C18.0929 199.017 18.02 198.65 18.02 198.278C18.02 197.907 18.0929 197.539 18.2344 197.196C18.3759 196.854 18.5833 196.542 18.8448 196.28C19.1062 196.017 19.4166 195.809 19.7581 195.668C20.0996 195.526 20.4656 195.453 20.8351 195.454H42.4258C42.7953 195.453 43.1613 195.526 43.5028 195.668C43.8443 195.809 44.1547 196.017 44.4162 196.28C44.6776 196.542 44.885 196.854 45.0266 197.196C45.1681 197.539 45.2409 197.907 45.2409 198.278C45.2409 198.65 45.1681 199.017 45.0266 199.36C44.885 199.703 44.6776 200.015 44.4162 200.277C44.1547 200.539 43.8443 200.747 43.5028 200.889C43.1613 201.031 42.7953 201.103 42.4258 201.103Z" fill="#077FFF"/>
<path d="M134.341 145.107C133.884 145.108 133.431 145.018 133.007 144.845L57.8817 113.527V15.4957C57.8827 14.6289 58.2259 13.7978 58.836 13.1849C59.4461 12.5719 60.2733 12.2271 61.1361 12.2261H205.259C206.122 12.2271 206.949 12.5719 207.559 13.1849C208.169 13.7978 208.512 14.6289 208.513 15.4957V113.595L208.372 113.656L135.715 144.829C135.28 145.013 134.813 145.107 134.341 145.107Z" fill="white"/>
<path d="M134.341 145.34C133.853 145.341 133.37 145.246 132.919 145.061L57.6492 113.682V15.4956C57.6502 14.5668 58.0179 13.6764 58.6716 13.0197C59.3253 12.3629 60.2116 11.9935 61.136 11.9924H205.259C206.183 11.9935 207.07 12.3629 207.723 13.0197C208.377 13.6764 208.745 14.5668 208.746 15.4956V113.749L135.807 145.044C135.343 145.24 134.844 145.341 134.341 145.34ZM58.579 113.058L133.273 144.197C133.97 144.481 134.75 144.476 135.443 144.184L207.816 113.132V15.4956C207.815 14.8145 207.545 14.1616 207.066 13.68C206.587 13.1983 205.937 12.9274 205.259 12.9266H61.136C60.4581 12.9274 59.8082 13.1983 59.3288 13.68C58.8495 14.1616 58.5798 14.8145 58.579 15.4956L58.579 113.058Z" fill="#3F3D56"/>
<path d="M261.746 90.4644H261.653L208.281 113.361L135.257 144.689C134.972 144.81 134.665 144.873 134.356 144.874C134.046 144.876 133.74 144.816 133.453 144.699L58.114 113.296L3.431 90.5017L3.34746 90.4644H3.25439C2.39156 90.4653 1.56435 90.8101 0.954242 91.4231C0.344134 92.036 0.000957371 92.8671 0 93.734V235.73C0.000958599 236.597 0.344134 237.428 0.954242 238.041C1.56435 238.654 2.39156 238.999 3.25439 239H261.746C262.608 238.999 263.436 238.654 264.046 238.041C264.656 237.428 264.999 236.597 265 235.73V93.734C264.999 92.8671 264.656 92.036 264.046 91.4231C263.436 90.8101 262.608 90.4653 261.746 90.4644ZM264.07 235.73C264.07 236.35 263.825 236.944 263.389 237.382C262.953 237.82 262.362 238.066 261.746 238.066H3.25439C2.63795 238.066 2.04683 237.82 1.61095 237.382C1.17506 236.944 0.930071 236.35 0.929825 235.73V93.734C0.930668 93.1301 1.16384 92.5498 1.5806 92.1146C1.99736 91.6793 2.56543 91.4228 3.16608 91.3985L58.114 114.305L133.095 145.563C133.907 145.894 134.816 145.889 135.624 145.549L208.281 114.375L261.839 91.3985C262.438 91.4246 263.005 91.6818 263.42 92.1168C263.836 92.5518 264.069 93.131 264.07 93.734V235.73Z" fill="#3F3D56"/>
<path d="M133.59 117.309C130.817 117.314 128.117 116.413 125.898 114.742L125.76 114.638L96.7911 92.3542C95.4495 91.3214 94.3235 90.0333 93.4774 88.5633C92.6313 87.0933 92.0816 85.4703 91.8598 83.7869C91.638 82.1035 91.7484 80.3927 92.1847 78.7521C92.621 77.1116 93.3747 75.5735 94.4026 74.2255C95.4306 72.8776 96.7127 71.7463 98.1758 70.8963C99.6389 70.0462 101.254 69.4939 102.93 69.2711C104.605 69.0483 106.308 69.1592 107.941 69.5975C109.574 70.0359 111.105 70.793 112.447 71.8258L131.211 86.2813L175.553 28.1811C176.581 26.8335 177.864 25.7026 179.327 24.8531C180.791 24.0035 182.406 23.4518 184.082 23.2296C185.758 23.0074 187.46 23.1189 189.093 23.5579C190.726 23.9968 192.257 24.7546 193.598 25.7879L193.322 26.164L193.605 25.7934C196.31 27.8825 198.081 30.9645 198.527 34.3633C198.974 37.7621 198.06 41.2 195.987 43.9229L143.83 112.263C142.623 113.838 141.072 115.112 139.296 115.987C137.521 116.862 135.568 117.315 133.59 117.309Z" fill="#077FFF"/>
</g>
<defs>
<clipPath id="clip0_140_922">
<rect width="265" height="239" fill="white"/>
</clipPath>
</defs>
</svg>
