<svg width="30" height="30" viewBox="0 0 30 30" fill="none" xmlns="http://www.w3.org/2000/svg">
<path d="M24.3332 15.3086L25.606 14.0358C27.4241 12.2177 28.3332 11.3086 28.3332 10.179C28.3332 9.04935 27.4241 8.14029 25.606 6.32219L23.6776 4.39379C21.8596 2.57568 20.9505 1.66663 19.8208 1.66663C18.6912 1.66663 17.7821 2.57568 15.964 4.39379L4.39366 15.9641C2.57556 17.7822 1.6665 18.6913 1.6665 19.8209C1.6665 20.9506 2.57556 21.8597 4.39366 23.6777L6.32206 25.6061C8.14017 27.4242 9.04922 28.3333 10.1789 28.3333C11.3085 28.3333 12.2175 27.4242 14.0357 25.6061L20.6418 19" stroke="#077FFF" stroke-width="2" stroke-linecap="round"/>
</svg>
