<?xml version="1.0" encoding="UTF-8"?>
<svg id="Layer_2" xmlns="http://www.w3.org/2000/svg" viewBox="0 0 431.54 655.38">
  <g id="Layer_3">
    <g>
      <ellipse fill="#0774e0" cx="285.23" cy="63.41" rx="65.26" ry="46.7" transform="translate(128.74 310.17) rotate(-70.15)"/>
      <ellipse fill="#0774e0" cx="190.48" cy="69.61" rx="29.49" ry="41.22"/>
      <ellipse fill="#0774e0" cx="123.77" cy="98.38" rx="25.02" ry="34.96"/>
      <ellipse fill="#0774e0" cx="65.76" cy="128.01" rx="21.21" ry="29.64"/>
      <ellipse fill="#0774e0" cx="22.83" cy="170.25" rx="17.64" ry="24.65" transform="translate(-41.21 10.86) rotate(-14.25)"/>
      <path fill="#0774e0" d="M322.25,276.98c-39.42,136.42-184.98,106.4-142.03,232.15,10.25-95.73,137.38-73.83,142.03-232.15Z"/>
      <path fill="#0774e0" d="M109.44,549.4c-44.98-42.38-60.35-89.88-69.6-125.31-5.03-19.26-7.14-39.22-5.36-59.04,15.09-167.61,267.99-190.09,231.43-27.74,144.3-171.62-45.7-255.89-176.91-159.86C40.23,213.15,9.96,268.53,2.53,328.52c-1.82,14.67-2.67,29.63-2.51,44.83,0,.21,0,.42,0,.62.65,51.72,21.78,101.54,58.83,137.64,16.58,16.15,34.14,28.47,50.59,37.8Z"/>
      <path fill="#5ab5ff" d="M27.67,505.39c2.94,2.77,5.66,5.78,8.28,8.85,51.88,60.73,122.46,75.57,146.77,54.88-13.14-23.32-52.01-27.05-68.32-44.48-1.41-1.51-1.56-3.83-.31-5.47,9.35-12.26,24.54-5.97,39.11.23,8.25,3.51,16.86,6.06,25.68,7.68,30.88,5.68,61.22,21.95,98.94,72.26.96,1.28,2.16,2.3,3.45,3.18l-.09.25c.05.02.43.15.95.32,1.95,1.13,4.14,1.82,6.44,1.93,20.19,5.59,79.34,17.97,142.99-6.15-90.33,65.59-215.93,77.1-317.24,18.65-47.92-27.65-84.99-66.95-109.68-112.27-1.56-2.86-1.47-6.59.77-8.96,5.17-5.45,15.46,2.72,22.27,9.12Z"/>
      <polygon fill="#5ab5ff" points="405.4 467.84 367.98 467.84 367.98 430.43 314.7 430.43 314.7 467.84 277.28 467.84 277.28 521.13 314.7 521.13 314.7 558.55 367.98 558.55 367.98 521.13 405.4 521.13 405.4 467.84"/>
    </g>
  </g>
</svg>
