<svg width="22" height="28" viewBox="0 0 22 28" fill="none" xmlns="http://www.w3.org/2000/svg">
<path d="M19.3262 23.2498H2.67378C1.75344 23.2498 1 24.0032 1 24.9236C1 25.844 1.75344 26.5975 2.67378 26.5975H19.3262C20.2466 26.5975 21 25.844 21 24.9236C21 24.0032 20.2466 23.2498 19.3262 23.2498Z" stroke="#077FFF" stroke-width="1.5" stroke-miterlimit="10" stroke-linecap="round" stroke-linejoin="round"/>
<path d="M4.38728 14.1944C3.35664 14.1944 2.51442 13.3536 2.51442 12.3214C2.51442 11.2892 3.35669 10.4469 4.38728 10.4469C5.41945 10.4469 6.26172 11.2892 6.26172 12.3214C6.26172 13.3535 5.4195 14.1944 4.38728 14.1944Z" stroke="#077FFF" stroke-width="1.5" stroke-miterlimit="10" stroke-linecap="round" stroke-linejoin="round"/>
<path d="M6.95992 4.27103L9.22949 2.15295L15.1608 8.50843L12.8912 10.6265L6.95992 4.27103Z" stroke="#077FFF" stroke-width="1.5" stroke-miterlimit="10" stroke-linecap="round" stroke-linejoin="round"/>
<path d="M16.5863 7.17737L11.594 11.836L14.9217 15.4027L15.0289 15.3031C14.5189 14.7565 15.1744 13.3138 16.4944 12.0826C17.813 10.8513 19.2969 10.2969 19.8068 10.8436L19.9141 10.7441L16.5863 7.17737Z" stroke="#077FFF" stroke-width="1.5" stroke-miterlimit="10" stroke-linecap="round" stroke-linejoin="round"/>
<path d="M16.4946 12.0825C15.1745 13.3137 14.5191 14.7564 15.029 15.3031C15.539 15.8498 17.0229 15.2939 18.3414 14.0626C19.6615 12.8314 20.3169 11.3902 19.807 10.8435C19.297 10.2968 17.8131 10.8512 16.4946 12.0825Z" stroke="#077FFF" stroke-width="1.5" stroke-miterlimit="10" stroke-linecap="round" stroke-linejoin="round"/>
<path d="M2.91276 13.4762V23.2498H5.86377V13.4762C5.52073 13.9141 4.98628 14.1945 4.3875 14.1945C3.78873 14.1945 3.2558 13.9142 2.91276 13.4762Z" stroke="#077FFF" stroke-width="1.5" stroke-miterlimit="10" stroke-linecap="round" stroke-linejoin="round"/>
<path d="M8.4472 5.86475L3.72437 10.5678C3.93114 10.4896 4.15468 10.4468 4.38747 10.4468C5.38441 10.4468 6.1991 11.2263 6.25882 12.2079L10.4609 8.02255L8.4472 5.86475Z" stroke="#077FFF" stroke-width="1.5" stroke-miterlimit="10" stroke-linecap="round" stroke-linejoin="round"/>
<path d="M16.562 19.8655V23.1244" stroke="#077FFF" stroke-width="1.5" stroke-miterlimit="10" stroke-linecap="round" stroke-linejoin="round"/>
<path d="M18.1914 19.7567H14.9326" stroke="#077FFF" stroke-width="1.5" stroke-miterlimit="10" stroke-linecap="round" stroke-linejoin="round"/>
<path d="M7.53125 1.40234L6.34447 2.51879" stroke="#077FFF" stroke-width="1.5" stroke-miterlimit="10" stroke-linecap="round" stroke-linejoin="round"/>
</svg>
