<svg width="27" height="27" viewBox="0 0 27 27" fill="none" xmlns="http://www.w3.org/2000/svg">
<path d="M19.4827 3.98263L21.732 1.73196C22.2009 1.26306 22.8369 0.999634 23.5 0.999634C24.1631 0.999634 24.7991 1.26306 25.268 1.73196C25.7369 2.20087 26.0003 2.83683 26.0003 3.49996C26.0003 4.16309 25.7369 4.79906 25.268 5.26796L11.1093 19.4266C10.4044 20.1311 9.53515 20.6489 8.58 20.9333L5 22L6.06667 18.42C6.35104 17.4648 6.86885 16.5955 7.57333 15.8906L19.4827 3.98263ZM19.4827 3.98263L23 7.49996M21 16.6666V23C21 23.7956 20.6839 24.5587 20.1213 25.1213C19.5587 25.6839 18.7956 26 18 26H4C3.20435 26 2.44129 25.6839 1.87868 25.1213C1.31607 24.5587 1 23.7956 1 23V8.99996C1 8.20431 1.31607 7.44125 1.87868 6.87864C2.44129 6.31603 3.20435 5.99996 4 5.99996H10.3333" stroke="#077FFF" stroke-width="2" stroke-linecap="round" stroke-linejoin="round"/>
</svg>
