<svg width="319" height="268" viewBox="0 0 319 268" fill="none" xmlns="http://www.w3.org/2000/svg">
<g clip-path="url(#clip0_140_931)">
<path d="M259.428 36.6233H47.5117C43.7691 36.6233 40.7351 39.6605 40.7351 43.4071V260.65C40.7351 264.396 43.7691 267.433 47.5117 267.433H259.428C263.171 267.433 266.205 264.396 266.205 260.65V43.4071C266.205 39.6605 263.171 36.6233 259.428 36.6233Z" fill="white"/>
<path d="M256.367 268H50.5732C44.8362 268 40.1689 263.328 40.1689 257.585V46.4726C40.1689 40.7294 44.8362 36.0571 50.5732 36.0571H256.367C262.103 36.0571 266.77 40.7294 266.77 46.4726V257.585C266.77 263.328 262.103 268 256.367 268ZM50.5732 37.1899C45.46 37.1899 41.3005 41.3539 41.3005 46.4726V257.585C41.3005 262.703 45.46 266.867 50.5732 266.867H256.367C261.479 266.867 265.639 262.703 265.639 257.585V46.4726C265.639 41.3539 261.479 37.1899 256.367 37.1899H50.5732Z" fill="#090814"/>
<path d="M236.16 143.957H74.4577C70.2143 143.957 66.7615 140.501 66.7615 136.253V110.88C66.7615 106.632 70.2143 103.176 74.4577 103.176H236.16C240.403 103.176 243.856 106.632 243.856 110.88V136.253C243.856 140.501 240.403 143.957 236.16 143.957ZM74.4577 104.309C70.8381 104.309 67.8931 107.256 67.8931 110.88V136.253C67.8931 139.876 70.8381 142.824 74.4577 142.824H236.16C239.78 142.824 242.724 139.876 242.724 136.253V110.88C242.724 107.256 239.78 104.309 236.16 104.309H74.4577Z" fill="#090814"/>
<path d="M236.16 193.235H74.4577C70.2143 193.235 66.7615 189.778 66.7615 185.53V160.157C66.7615 155.909 70.2143 152.453 74.4577 152.453H236.16C240.403 152.453 243.856 155.909 243.856 160.157V185.53C243.856 189.778 240.403 193.235 236.16 193.235ZM74.4577 153.586C70.8381 153.586 67.8931 156.534 67.8931 160.157V185.53C67.8931 189.154 70.8381 192.102 74.4577 192.102H236.16C239.78 192.102 242.724 189.154 242.724 185.53V160.157C242.724 156.534 239.78 153.586 236.16 153.586H74.4577Z" fill="#090814"/>
<path d="M115.137 177.092C117.325 177.092 119.098 175.317 119.098 173.127C119.098 170.937 117.325 169.162 115.137 169.162C112.95 169.162 111.177 170.937 111.177 173.127C111.177 175.317 112.95 177.092 115.137 177.092Z" fill="#077FFF"/>
<path d="M128.433 177.375C130.621 177.375 132.394 175.6 132.394 173.41C132.394 171.22 130.621 169.445 128.433 169.445C126.246 169.445 124.473 171.22 124.473 173.41C124.473 175.6 126.246 177.375 128.433 177.375Z" fill="#077FFF"/>
<path d="M142.013 176.809C144.2 176.809 145.973 175.033 145.973 172.844C145.973 170.654 144.2 168.879 142.013 168.879C139.825 168.879 138.052 170.654 138.052 172.844C138.052 175.033 139.825 176.809 142.013 176.809Z" fill="#077FFF"/>
<path d="M155.592 176.809C157.779 176.809 159.552 175.033 159.552 172.844C159.552 170.654 157.779 168.879 155.592 168.879C153.404 168.879 151.631 170.654 151.631 172.844C151.631 175.033 153.404 176.809 155.592 176.809Z" fill="#077FFF"/>
<path d="M169.171 176.809C171.358 176.809 173.131 175.033 173.131 172.844C173.131 170.654 171.358 168.879 169.171 168.879C166.983 168.879 165.21 170.654 165.21 172.844C165.21 175.033 166.983 176.809 169.171 176.809Z" fill="#077FFF"/>
<path d="M182.75 176.809C184.937 176.809 186.71 175.033 186.71 172.844C186.71 170.654 184.937 168.879 182.75 168.879C180.563 168.879 178.789 170.654 178.789 172.844C178.789 175.033 180.563 176.809 182.75 176.809Z" fill="#077FFF"/>
<path d="M190.954 245.91H114.005C103.866 245.91 95.6169 237.652 95.6169 227.502C95.6169 217.351 103.866 209.094 114.005 209.094H190.954C201.093 209.094 209.342 217.351 209.342 227.502C209.342 237.652 201.093 245.91 190.954 245.91Z" fill="#077FFF"/>
<path d="M15.5354 230.004C14.1983 230.004 12.8904 229.613 11.7461 228.855C10.1824 227.818 9.12764 226.232 8.77733 224.388L0.205851 179.286C-0.492002 175.612 1.81483 172.087 5.4577 171.262L43.8567 162.555C45.6789 162.143 47.5454 162.472 49.1146 163.483C50.6849 164.496 51.7574 166.061 52.1348 167.892L61.4776 213.201C62.239 216.893 59.8642 220.546 56.1843 221.345L17.0134 229.845C16.5217 229.951 16.0266 230.004 15.5354 230.004Z" fill="#D6D6E3"/>
<path d="M12.5844 189.377C11.6495 189.377 10.818 188.712 10.6401 187.758C10.4389 186.682 11.1478 185.646 12.2231 185.446L43.2667 179.64C44.3414 179.436 45.3757 180.148 45.5769 181.225C45.778 182.301 45.0691 183.336 43.9939 183.537L12.9502 189.343C12.8276 189.366 12.7049 189.377 12.5844 189.377Z" fill="#090814"/>
<path d="M15.4138 201.272C14.5176 201.272 13.7059 200.659 13.4888 199.748C13.2357 198.683 13.8927 197.614 14.9569 197.36L44.1793 190.394C45.2424 190.142 46.3105 190.799 46.5646 191.864C46.8177 192.929 46.1607 193.998 45.0966 194.252L15.8741 201.217C15.7199 201.254 15.5658 201.272 15.4138 201.272Z" fill="#090814"/>
<path d="M17.3936 212.78C16.4781 212.78 15.6559 212.141 15.4586 211.208C15.2321 210.137 15.9156 209.085 16.9853 208.858L36.9219 204.631C37.9977 204.405 39.0436 205.089 39.2696 206.16C39.4961 207.231 38.8127 208.283 37.7429 208.51L17.8064 212.736C17.6677 212.766 17.5295 212.78 17.3936 212.78Z" fill="#090814"/>
<path d="M304.482 91.2467C304.13 91.2467 303.774 91.219 303.417 91.1632L263.821 84.9443C261.968 84.6528 260.35 83.6495 259.265 82.1178C258.179 80.5868 257.768 78.726 258.105 76.8797L266.366 31.7194C267.04 28.0411 270.458 25.5929 274.156 26.1322L313.107 31.8798C314.954 32.1525 316.577 33.1349 317.676 34.646C318.775 36.1566 319.211 38.0041 318.904 39.8476L311.288 85.4798C310.728 88.8406 307.789 91.2467 304.482 91.2467Z" fill="#D6D6E3"/>
<path d="M306.039 51.5332C305.918 51.5332 305.796 51.5222 305.673 51.4989L274.628 45.7016C273.552 45.5008 272.843 44.4659 273.044 43.3895C273.244 42.3131 274.276 41.599 275.354 41.8042L306.399 47.6016C307.475 47.8024 308.184 48.8373 307.983 49.9137C307.806 50.8672 306.973 51.5332 306.039 51.5332Z" fill="#090814"/>
<path d="M303.11 61.9082C303.021 61.9082 302.931 61.9027 302.84 61.8899L273.075 57.8322C271.991 57.6845 271.233 56.6855 271.38 55.6003C271.528 54.5151 272.529 53.7551 273.61 53.9039L303.375 57.9616C304.458 58.1093 305.217 59.1083 305.069 60.1935C304.934 61.1875 304.085 61.9082 303.11 61.9082Z" fill="#090814"/>
<path d="M291.161 72.5587C291.056 72.5587 290.949 72.5498 290.842 72.5327L270.725 69.2736C269.645 69.0988 268.912 68.0805 269.087 66.9997C269.262 65.9189 270.272 65.1871 271.358 65.3597L291.475 68.6187C292.555 68.7935 293.288 69.8118 293.114 70.8926C292.956 71.8661 292.116 72.5587 291.161 72.5587Z" fill="#090814"/>
</g>
<defs>
<clipPath id="clip0_140_931">
<rect width="319" height="268" fill="white"/>
</clipPath>
</defs>
</svg>
