<svg width="32" height="32" viewBox="0 0 25 24" fill="none" xmlns="http://www.w3.org/2000/svg">
<path d="M3.52 10C3.09 10 2.75 9.66 2.75 9.23V6.92C2.75 4.21 4.96 2 7.67 2H9.98C10.41 2 10.75 2.34 10.75 2.77C10.75 3.2 10.41 3.54 9.98 3.54H7.67C5.8 3.54 4.29 5.06 4.29 6.92V9.23C4.29 9.66 3.94 10 3.52 10Z" fill="#484C52"/>
<path d="M21.98 10C21.56 10 21.21 9.66 21.21 9.23V6.92C21.21 5.05 19.69 3.54 17.83 3.54H15.52C15.09 3.54 14.75 3.19 14.75 2.77C14.75 2.35 15.09 2 15.52 2H17.83C20.54 2 22.75 4.21 22.75 6.92V9.23C22.75 9.66 22.41 10 21.98 10Z" fill="#484C52"/>
<path d="M17.8299 22.0001H16.4399C16.0199 22.0001 15.6699 21.6601 15.6699 21.2301C15.6699 20.8101 16.0099 20.4601 16.4399 20.4601H17.8299C19.6999 20.4601 21.2099 18.9401 21.2099 17.0801V15.7001C21.2099 15.2801 21.5499 14.9301 21.9799 14.9301C22.3999 14.9301 22.7499 15.2701 22.7499 15.7001V17.0801C22.7499 19.7901 20.5399 22.0001 17.8299 22.0001Z" fill="#484C52"/>
<path d="M9.98 22H7.67C4.96 22 2.75 19.79 2.75 17.08V14.77C2.75 14.34 3.09 14 3.52 14C3.95 14 4.29 14.34 4.29 14.77V17.08C4.29 18.95 5.81 20.46 7.67 20.46H9.98C10.4 20.46 10.75 20.8 10.75 21.23C10.75 21.66 10.41 22 9.98 22Z" fill="#484C52"/>
<path d="M19.21 11.23H17.85H7.65002H6.29002C5.86002 11.23 5.52002 11.58 5.52002 12C5.52002 12.42 5.86002 12.77 6.29002 12.77H7.65002H17.85H19.21C19.64 12.77 19.98 12.42 19.98 12C19.98 11.58 19.64 11.23 19.21 11.23Z" fill="#484C52"/>
<path d="M7.6499 13.94V14.27C7.6499 15.93 8.9899 17.27 10.6499 17.27H14.8499C16.5099 17.27 17.8499 15.93 17.8499 14.27V13.94C17.8499 13.82 17.7599 13.73 17.6399 13.73H7.8599C7.7399 13.73 7.6499 13.82 7.6499 13.94Z" fill="#484C52"/>
<path d="M7.6499 10.06V9.72998C7.6499 8.06998 8.9899 6.72998 10.6499 6.72998H14.8499C16.5099 6.72998 17.8499 8.06998 17.8499 9.72998V10.06C17.8499 10.18 17.7599 10.27 17.6399 10.27H7.8599C7.7399 10.27 7.6499 10.18 7.6499 10.06Z" fill="#484C52"/>
</svg>
